<?xml version="1.0" encoding="utf-8"?>
<!-- Generator: Adobe Illustrator 27.1.1, SVG Export Plug-In . SVG Version: 6.00 Build 0)  -->
<svg version="1.1" id="Layer_1" xmlns="http://www.w3.org/2000/svg" xmlns:xlink="http://www.w3.org/1999/xlink" x="0px" y="0px"
	 viewBox="0 0 512 105.8" style="enable-background:new 0 0 512 105.8;" xml:space="preserve">
<style type="text/css">
	.st0{fill-rule:evenodd;clip-rule:evenodd;fill:#003263;}
</style>
<g>
	<path class="st0" d="M499.8,64c-3.4,0-6.2,2.6-6.2,6.1c0,3.6,2.9,6.1,6.2,6.1c3.4,0,6.2-2.6,6.2-6.1C506,66.6,503.1,64,499.8,64
		L499.8,64z M499.8,75.2c-2.8,0-5-2.2-5-5.1c0-2.9,2.2-5.1,5-5.1c2.8,0,5,2.2,5,5.1C504.8,73,502.6,75.2,499.8,75.2L499.8,75.2z"/>
	<path class="st0" d="M500.8,70.5c1.1-0.1,1.8-0.7,1.8-1.9c0-1.4-0.8-2-2.5-2h-2.7v7.1h1.1v-3.1h1.2l1.9,3.1h1.2L500.8,70.5
		L500.8,70.5z M498.5,69.7v-2.2h1.5c0.7,0,1.5,0.2,1.5,1c0,1.1-0.8,1.2-1.7,1.2H498.5L498.5,69.7z"/>
	<path class="st0" d="M83.5,35.5c1.8,0,3,0.6,3.9,1c2,1,4.4,2.1,7.4,3.5c0,0,4.8-3.4,5.1-3.6c1.6-1.1,3.2-0.3,3.7,0.7
		c1.8,3.4,5.1,10.4,6.8,16.8c0.2,0.8,0,2-1.2,2.3c-0.7,0.2-1.9,0.4-3.1,0.5c-1.7,0.2-1.7,1.6-1.7,2.5c0,1,0,8.1,0,10.6
		c0,1.5-1.1,6.4-6.7,6.3c-0.4,0-12.9,0-12.8,0c-4.8,0-8.7-4.1-8.8-8.4c0-2.9,0-22.8,0-25.1C76.1,38.3,79.9,35.4,83.5,35.5L83.5,35.5
		z"/>
	<path class="st0" d="M63.2,76.2H21.5v4.6h48.9c0,0,1.8-4.1,1.8-8.6c0-0.2,0-31.4,0-31.4c0-2.5,1-6.7,6.1-7.8c0.1,0,0.3-0.1,0.4-0.1
		c14.4-3.4,29.3-0.3,37.7,3.3c1.5,0.7,1.9-0.5,1.8-1c0.2-7.1-5.2-15.1-15.1-15.6c-8-0.2-12.5,2.7-14.1,3.5c-0.1,0.1-0.3,0-0.5-0.2
		c-1.5-1.5-4.6-3.6-8.2-4.7c-0.5-0.1-0.6-0.9,0-1c7.6-0.8,14.2,0,17,0.5c0.6,0.1,1.1-0.3,0.9-0.9c-0.2-0.4-0.4-0.7-0.7-1.3
		c-0.7-1.4-2.5-3-4.7-3.6c-6-1.7-16.1-3.1-25.2-3.1c-10.2-0.1-20.9,2-23.6,2.6c-0.6,0.1-1.6,0.4-1.7,0.4c-0.7,0.1-0.9,0.8-0.6,1.2
		c0.2,0.2,0.8,0.7,1,1c0.3,0.4,0.5,1-0.1,1.6L23.8,32.6h12.9l0.1,0c0.8,0,1.6,0.7,1.6,1.7c0,0.9-0.7,1.7-1.6,1.7l-0.1,0H20l-5.1,4.7
		h21.9l0.1,0c0.9,0,1.5,0.9,1.5,1.7c0,0.8-0.6,1.7-1.5,1.7l-0.1,0H11.1L6,48.7h44.3l0.1,0c0.9,0,1.5,0.9,1.6,1.7
		c0,0.9-0.6,1.7-1.5,1.7l-0.1,0H6v4.6h44.2l0.1,0c1,0,1.6,0.9,1.6,1.8c0,0.8-0.7,1.6-1.6,1.6l-0.1,0H6v4.7h57.8h0.1
		c1,0,1.6,0.8,1.5,1.7c0,0.8-0.7,1.6-1.5,1.6l-0.1,0H21.6v4.7h41.7l0.9,0c0.8,0,1.5,1,1.5,1.8c0,0.8-0.7,1.6-1.5,1.6H63.2L63.2,76.2
		z"/>
	<path class="st0" d="M37.1,92.2l0,4.7c0,0,6.3,0,9.8,0c8.8-0.1,14.6-4.7,14.6-4.7H37.1L37.1,92.2z"/>
	<path class="st0" d="M37.1,84.2l0,4.6h28.3c1.3-1.3,3-3.7,3.4-4.6L37.1,84.2L37.1,84.2z"/>
	<path class="st0" d="M493.1,55.5c0-0.1,0-0.2,0-0.3c-0.2-3.6-1.4-6.8-3-9.3c-3.5-5.5-9.7-8.5-17-8.4c-7.4-0.1-13.5,2.9-17.1,8.4
		c-1.7,2.5-2.9,5.7-3,9.3c0,0.1,0,0.2,0,0.3c-1,12.1,6,20.4,18,21.4c0.7,0.1,1.4,0.1,2.1,0.1c0.7,0,1.4,0,2.1-0.1
		C487.1,76,494.1,67.6,493.1,55.5L493.1,55.5z M474,71.3c-0.3,0-0.6,0-0.9,0c-0.3,0-0.6,0-0.9,0c-1.8-0.2-3.1-0.8-4.4-1.8
		c-0.4-0.3-0.7-0.6-1.1-1c-1.8-2.1-2.8-5.6-3.1-8.4c-0.5-6.5,0.8-16,8.8-16.7c0.2,0,0.4,0,0.6,0c0,0,0.1,0,0.1,0c0,0,0.1,0,0.1,0
		c0.2,0,0.4,0,0.6,0c8,0.6,9.3,10.2,8.8,16.7c-0.2,2.8-1.1,6.3-3.1,8.4c-0.3,0.4-0.7,0.7-1.1,1C477.1,70.5,475.6,71.1,474,71.3
		L474,71.3z"/>
	<path class="st0" d="M413.4,46.6c0-3,0.3-8.2,0.3-8.2h0h-9.8h0c0,0,0.3,5.2,0.3,8.2l0,21.5c0,3-0.3,8.1-0.3,8.1h0h9.8h0
		c0,0-0.3-5.1-0.3-8.1L413.4,46.6L413.4,46.6z"/>
	<path class="st0" d="M356,70.3c-2.1,0-4.8,0-6.8,0c-0.1-3.8-0.1-7.5-0.1-10.8l0-0.5h0c0,0,0-0.1,0-0.1h11.3v-5.3h-11.3
		c0-5.8,0.1-9.5,0.1-9.5l14.1,0v-5.7c-9.8,0-24.1,0-24.1,0s0.2,5.2,0.2,8.2V68c0,2.7-0.2,7.4-0.2,8.1h25l0-6
		C364.2,70.1,359.3,70.3,356,70.3L356,70.3z"/>
	<path class="st0" d="M192.2,70.3c-2.1,0-4.8,0-6.8,0c-0.1-3.8-0.1-7.5-0.2-10.8l0-0.5h0c0,0,0-0.1,0-0.1h11.3v-5.3h-11.3
		c0-5.8,0.1-9.5,0.1-9.5l14.1,0v-5.7c-9.8,0-24.1,0-24.1,0s0.2,5.2,0.2,8.2V68c0,2.7-0.2,7.4-0.2,8.1h25l0-6
		C200.4,70.1,195.5,70.3,192.2,70.3L192.2,70.3z"/>
	<path class="st0" d="M388.2,55.8l10.8-17.5h-7.5l-0.1,0.2c-2.3,3.9-5.1,8.7-6.2,10.4l-0.4,0.7l-6.3-11.3h-11.3l10.9,19.5
		l-11.4,18.2h7.5c4.8-8.3,7.3-12.1,7.3-12.1l6.7,12.1h11.3L388.2,55.8L388.2,55.8z"/>
	<path class="st0" d="M444.1,71c-8.7,0-13.5-6.4-13.2-14.3c0.2-6.9,3.4-12.7,10.9-13.3c2.9-0.2,5.2,0.3,9.3,1.4l-0.4-5.9
		c0,0-3.4-1.1-8.3-1.3c-6.2-0.2-11.9,1-16.4,5.1c-4,3.7-6.4,9.1-6.4,14.4c0,5.9,2.4,11.2,6.9,15c4.7,4,9.7,4.9,15.7,4.9
		c3.9,0,6.2-0.3,10.1-1.3l-0.6-5.8C450.8,70.1,448.1,71,444.1,71L444.1,71z"/>
	<path class="st0" d="M317.9,32.7l11,0l0.3,2.5c2.4,25.3,3.9,41,3.9,41h-11.4l-1.1-15.6l-1-14l-9.7,29.6c-2.6,0-6.1,0-6.1,0
		s-3.1-10.5-3.6-12l-5.5-17.8c0,0-0.9,9.9-1.2,14.1c-0.7,8.5-1.3,15.6-1.3,15.6h-8.5c0,0,3.5-35.4,3.7-37.5c0.3-2.2,0.7-6,0.7-6
		h11.2l9.3,25.5L317.9,32.7L317.9,32.7z"/>
	<path class="st0" d="M279.1,55.6c0-0.1,0-0.2,0-0.2c-0.2-3.6-1.4-6.8-3-9.3c-3.5-5.5-9.6-8.4-17-8.3c-7.4-0.1-13.5,2.9-17,8.3
		c-1.7,2.5-2.9,5.7-3,9.3c0,0.1,0,0.2,0,0.2c-1,12,6,20.3,17.9,21.3c0.7,0.1,1.4,0.1,2.1,0.1c0.7,0,1.4,0,2.1-0.1
		C273.1,75.9,280.1,67.6,279.1,55.6L279.1,55.6z M260,71.2c-0.3,0-0.6,0-0.9,0c-0.3,0-0.6,0-0.9,0c-1.8-0.2-3.1-0.8-4.4-1.7
		c-0.4-0.3-0.7-0.6-1.1-1c-1.8-2.1-2.8-5.6-3.1-8.4c-0.5-6.5,0.8-16,8.7-16.6c0.2,0,0.4,0,0.6,0c0,0,0.1,0,0.1,0c0,0,0.1,0,0.1,0
		c0.2,0,0.4,0,0.6,0c8,0.6,9.3,10.1,8.7,16.6c-0.2,2.8-1.1,6.2-3.1,8.4c-0.3,0.4-0.7,0.7-1.1,1C263.1,70.4,261.6,71.1,260,71.2
		L260,71.2z"/>
	<path class="st0" d="M173.1,76.1c-0.3-0.8-2.4-5.6-3.8-9.4l-12.8-34h-9.9c0,0-2.8,8-3.2,9.3l-9.3,26.4c-1.2,3.4-2.9,7.8-2.9,7.8
		h8.1c0,0,2.3-7.3,2.8-8.7l1.2-3.7h14.1l1.9,5.6c0.4,1,2.1,6.7,2.1,6.7H173.1L173.1,76.1z M145.2,57.6l4.7-14.1l0.3-0.8l5,14.9
		H145.2L145.2,57.6z"/>
	<path class="st0" d="M239.5,76.1c-2.3-3.4-3.2-4.8-5-7.2l-6.8-10.5c3.3-1.6,6.3-4.3,6.8-9.9c0.3-3.5-1.6-6.5-2.7-7.5
		c-1.6-1.4-3.2-2-5.5-2.3c-1.8-0.2-3.1-0.3-4.2-0.3h-16c0,0,0.2,5.2,0.2,8.2v21.4c0,3-0.2,8.2-0.2,8.2h9.8c0,0-0.3-5.2-0.3-8.2
		l0.1-6.9c0,0,2.1,0,3.6,0l6.2,11.4c0.8,1.4,2,3.3,2.3,3.7H239.5L239.5,76.1z M222.2,55c-1.5,0.8-4.8,0.6-6.4,0.5l0.1-10.8l0.9-0.1
		c3-0.2,5.2,0.2,6.1,0.6c1.3,0.6,2.1,1.9,2.2,4C225.2,52.4,224,54.1,222.2,55L222.2,55z"/>
</g>
</svg>
