<?xml version="1.0" encoding="utf-8"?>
<!-- Generator: Adobe Illustrator 27.1.1, SVG Export Plug-In . SVG Version: 6.00 Build 0)  -->
<svg version="1.1" id="Layer_1" xmlns="http://www.w3.org/2000/svg" xmlns:xlink="http://www.w3.org/1999/xlink" x="0px" y="0px"
	 viewBox="0 0 144 63" style="enable-background:new 0 0 144 63;" xml:space="preserve">
<style type="text/css">
	.st0{fill:#01426A;}
</style>
<path class="st0" d="M70.8,6.3L57,29.6c-1.4,2.4-2.2,4.8-2.4,7.2h-5.4c0.3-3,1.5-5.7,3.9-9.8l9.7-16.3c1.9-3.2,3.9-4.4,7.3-4.4
	C70.1,6.3,70.8,6.3,70.8,6.3z M69.7,30.8c-1,0.9-3,2.4-4.6,2.4c-1.2-0.1-1.2-1.1-0.4-2.6c3-5.7,6-8.6,9.8-8.6h0.7
	C75.1,22,69.7,30.8,69.7,30.8z M74.9,18.9c-7,0-11.4,4.1-15.2,13.1c-0.9,2.3-1.5,5.1,1.8,5c1.9,0,5-1,7.1-2.5
	c-0.2,0.8-0.3,1.8-0.2,2.4h4.9c0.2-1.9,0.9-4.3,2.5-7.3L82,19.2C79.7,18.9,77.3,18.9,74.9,18.9z M120.5,30.8c-1,0.9-3,2.4-4.6,2.4
	c-1.2-0.1-1.2-1.1-0.4-2.6c3-5.7,6-8.6,9.8-8.6h0.7L120.5,30.8L120.5,30.8z M125.6,18.9c-7,0-11.4,4.1-15.2,13.1
	c-0.9,2.3-1.5,5.1,1.8,5c1.9,0,5-1,7.1-2.5c-0.2,0.8-0.3,1.8-0.2,2.4h4.9c0.2-1.9,0.9-4.3,2.5-7.3l6.2-10.3
	C130.4,18.9,128,18.9,125.6,18.9z"/>
<path class="st0" d="M109.5,41.6h-1.6c-2.1,0-4-1.4-4.5-3.5l-2.4-9.3l-4.6,7.7h-5.2l14.7-24.8c1.9-3.2,3.9-4.4,7.3-4.4h0.5L104,23.8
	l7.3-5.1h5.9l-12.3,8.6L109.5,41.6z M61.1,4.9c-5,0-7.5,1.3-12.4,4.8L32.3,21.6H21.8c-3,0-5.5,0.1-7.4,1.9L11.7,26
	c0,0,7.9-0.3,15.3-0.6L11.3,36.7h6.8l16-11.6c3.1-0.1,5.3-0.2,5.3-0.2c3.7-0.1,5.8-3.4,5.8-3.4h-6.2l13-9.4l-9.6,15.7
	c-2.1,3.6-3,6.2-3.4,8.9h5.6c0.3-2.4,1-4.7,2.4-7.2L60.3,7.6C61.2,6.1,62,4.9,62,4.9S61.1,4.9,61.1,4.9z M87.4,23.8
	c-0.1,0.5,0.1,0.8,1.1,1.3l1.5,1c1.6,1.1,2.3,2.7,2.1,4c-0.5,3.7-3.3,6.7-9,6.7c-2.5,0-3.6-0.1-6.7-0.6l2.2-3.8
	c2.1,0.3,3.3,0.6,4.8,0.5c2.2,0,3-1,3.1-1.8c0.1-0.5-0.2-1-1.2-1.8l-1.2-0.8c-1.9-1.3-2.4-2.4-2.2-4.1c0.5-3.3,4.2-5.7,9.4-5.7
	c1.6,0,3.5,0.1,5.4,0.3l-2,3.5c-1.3-0.1-3.4-0.2-4.9-0.2C88.5,22.6,87.4,23.1,87.4,23.8z M129.7,33.5c0.9,0,1.8,0.8,1.8,1.8
	c0,0.9-0.8,1.8-1.8,1.8c-0.9,0-1.7-0.8-1.7-1.8C128,34.3,128.8,33.5,129.7,33.5z M129.7,36.6c0.8,0,1.3-0.6,1.3-1.4
	c0-0.8-0.6-1.4-1.3-1.4s-1.3,0.6-1.3,1.4S128.9,36.6,129.7,36.6z M129.5,36.2h-0.3v-1.9h0.7c0.3,0,0.7,0.3,0.7,0.6
	c0,0.3-0.2,0.5-0.4,0.6l0.4,0.8h-0.4l-0.4-0.7h-0.2L129.5,36.2L129.5,36.2z M129.8,35.1c0.3,0,0.3-0.1,0.3-0.3s-0.1-0.3-0.3-0.3
	h-0.3v0.6L129.8,35.1C129.8,35.2,129.8,35.1,129.8,35.1z M26.5,54.9h-3.9l-0.8,2.2h-1.9l3.6-9.5h2.2l3.6,9.5h-2L26.5,54.9z
	 M23.3,53.2h2.6l-1.3-3.6L23.3,53.2z M36,57.1v-9.5h1.9v9.5C37.8,57.1,36,57.1,36,57.1z M48.7,53.4h-0.9v3.7h-1.9v-9.6h3.7
	c1.9,0,3,1.3,3,3c0,1.3-0.8,2.4-2,2.7l2,3.9h-2.1L48.7,53.4z M49.3,51.8c0.9,0,1.5-0.5,1.5-1.3c0-0.8-0.6-1.3-1.5-1.3h-1.5v2.6
	L49.3,51.8L49.3,51.8z M60.2,57.1v-9.5H62v7.8h4.2v1.8C66.3,57.1,60.2,57.1,60.2,57.1z M73.5,57.1v-9.5h1.9v9.5
	C75.4,57.1,73.5,57.1,73.5,57.1z M89.6,57.1l-4.3-6.7v6.7h-1.9v-9.5h2.3l4,6.3v-6.3h1.9v9.5C91.6,57.1,89.6,57.1,89.6,57.1z
	 M99.7,57.1v-9.5h6v1.8h-4.1v2.2h3.7v1.7h-3.7v2.2h4.1v1.8L99.7,57.1L99.7,57.1z M118.1,50.3c-0.1-0.5-0.5-1.3-1.8-1.3
	c-0.9,0-1.5,0.6-1.5,1.2c0,0.5,0.3,0.9,1,1.1l1.3,0.3c1.8,0.3,2.7,1.4,2.7,2.8c0,1.4-1.3,3-3.5,3c-2.5,0-3.6-1.6-3.8-3l1.7-0.4
	c0.1,0.9,0.8,1.8,2.1,1.8c1,0,1.5-0.5,1.5-1.2c0-0.6-0.4-1-1.2-1.1l-1.3-0.3c-1.5-0.3-2.5-1.3-2.5-2.7c0-1.7,1.5-3,3.3-3
	c2.3,0,3.2,1.4,3.5,2.4C119.6,49.9,118.1,50.3,118.1,50.3z"/>
</svg>
