<?xml version="1.0" encoding="utf-8"?>
<!-- Generator: Adobe Illustrator 27.1.1, SVG Export Plug-In . SVG Version: 6.00 Build 0)  -->
<svg version="1.1" id="Layer_1" xmlns="http://www.w3.org/2000/svg" xmlns:xlink="http://www.w3.org/1999/xlink" x="0px" y="0px"
	 viewBox="0 0 512 84.6" style="enable-background:new 0 0 512 84.6;" xml:space="preserve">
<style type="text/css">
	.st0{fill:#45586A;}
	.st1{fill:url(#Red_Gradient_00000129175768089745638960000010406870459832333968_);}
	.st2{fill:url(#Beak_Shadow_00000116193407041820386200000010508380304187243405_);}
	.st3{fill:url(#Beak_00000162332833003648774930000011178859330253983642_);}
	.st4{fill:url(#Blue_Gradient_00000033355952596414941080000001199039445748445610_);}
</style>
<g>
	<g>
		<g>
			<path class="st0" d="M220.4,61V42.7c0-3.5-1.6-5.6-4.6-5.6c-4,0-6.6,4.2-6.6,9.9V61h-6.5c0,0,0-20.3,0-20.9
				c0-2.3-0.2-5.6-0.3-7.6c0,0,3,0,5.2,0c0.6,0,0.8,0.2,0.8,0.8c0,0.6,0.1,3.5,0.1,3.5h0.1c0.8-1.3,2.8-4.9,8.7-4.9
				c6.2,0,9.6,4.2,9.6,8.9V61H220.4z"/>
			<path class="st0" d="M169.9,54.8c0.2,0,0.4,0.1,0.5,0.6c0.1,1.4,0.2,3.6,0.2,4.3c-1.3,0.6-4.1,1.9-7.5,1.9
				c-8.6,0-13.9-5-13.9-14.8c0-9.2,4.7-14.8,13.9-14.8c3.1,0,5.9,1.1,7.5,1.9c0,1-0.1,3.3-0.2,4.3c0,0.4-0.2,0.6-0.5,0.6
				c-0.3,0-0.4-0.1-0.5-0.1c-2.1-1-4-1.5-5.8-1.5c-5.5,0-7.7,3.6-7.7,9.6c0,5.4,1.8,9.6,7.7,9.6c2.3,0,4.3-0.8,5.6-1.4
				C169.6,54.8,169.6,54.8,169.9,54.8z"/>
			<path class="st0" d="M197.1,53.3V42.2c0-6.2-3.6-10.2-12.1-10.2c-4.2,0-8.1,1.4-9.3,1.9c0,1.3,0.1,3.3,0.2,4.4
				c0,0.4,0.2,0.5,0.5,0.5c0.2,0,0.4-0.1,0.5-0.2c1.2-0.6,4.1-1.9,7.7-1.9c3.9,0,6.1,1.6,6.1,4.6v1c0,0-1.2,0-1.3,0
				c-9.6,0-16,3.3-16,10c0,4.8,3.2,9.1,8.9,9.1c5.9,0,8.3-3.7,8.7-4.2h0.1c0,0,0.1,1.8,0.2,2.7c0.1,0.8,0.5,0.9,1,0.9
				c0.5,0,5.4,0,5.4,0C197.5,59.9,197.1,57.3,197.1,53.3z M190.7,48.9c0,4.1-2.2,8-6.2,8c-3,0-4.6-2.2-4.6-4.6
				c0-2.9,1.6-5.7,9.7-5.7c0.1,0,1.1,0,1.1,0V48.9z"/>
			<path class="st0" d="M112.2,44.3c0-6.8-3.9-12.3-12.1-12.3c-8.3,0-13,6.2-13,14.8c0,10.1,5.4,14.7,14.5,14.7
				c4.6,0,8.1-1.2,8.8-1.5c0-0.7-0.1-3.5-0.2-4.7c0-0.3-0.1-0.6-0.5-0.6c-0.2,0-0.3,0.1-0.5,0.2c-1,0.5-3.5,1.6-6.7,1.6
				c-5.7,0-8.8-3.5-8.8-8.4h18.2C112.1,46.4,112.2,45.1,112.2,44.3z M93.8,43.9c0.2-4.4,2.4-7.1,6.2-7.1c3.6,0,6,2.6,5.8,7.1H93.8z"
				/>
			<path class="st0" d="M75.9,61V42.8c0-3.3-1.4-5.8-4.7-5.8c-3.8,0-5.9,4.1-5.9,9.9V61h-6.4V42.8c0-3-1.3-5.8-4.7-5.8
				c-3.8,0-6,4.1-6,10.1V61h-6.5c0,0,0-18,0-20.7c0-2.7-0.2-6.5-0.3-7.7c0,0,3.4,0,5.2,0c0.6,0,0.8,0.2,0.8,0.8c0,0.8,0,3.5,0,3.5
				h0.2c0.4-0.8,2.5-4.9,8.4-4.9c5.5,0,7.6,4,8.2,5.2c0.5-1.1,3-5.2,8.5-5.2c5.8,0,9.7,3.1,9.7,9.4V61H75.9z"/>
			<path class="st0" d="M123.6,47.1V61h-6.5c0,0,0-19.2,0-21.1c0-2-0.2-5.9-0.3-7.3c0,0,2.8,0,5.2,0c0.6,0,0.7,0.2,0.7,0.8
				c0,0.8,0.1,3.5,0.1,3.5h0.2c0.5-1.2,2.3-4.9,7.7-4.9c1.8,0,3.1,0.6,3.3,0.7c0,1.2-0.1,3.9-0.2,4.6c0,0.5-0.2,0.6-0.5,0.6
				c-0.2,0-0.3,0-0.4-0.1c-0.4-0.2-1.3-0.5-2.6-0.5C126.8,37.3,123.6,39.8,123.6,47.1z"/>
			<rect x="137.4" y="32.6" class="st0" width="6.4" height="28.4"/>
			<rect x="137.4" y="22.2" class="st0" width="6.6" height="6.2"/>
			<path class="st0" d="M25.1,23.7h-7.5L3.4,61h6.8l2.9-8.4H29l3,8.4h7.1L25.1,23.7z M15,47.6l6-17.1h0.1l6.1,17.1H15z"/>
		</g>
		<g>
			<path class="st0" d="M401.2,61.6c8.4,0,12.4-3.4,12.4-8.5c0-5-3.6-7.1-7.4-8.4c-1.1-0.4-2.1-0.7-3.1-1c-2.6-0.9-3.9-2-3.9-3.7
				c0-1.8,1.6-3,5-3c3,0,5.4,1.2,6.4,1.7c0.2,0.1,0.3,0.2,0.6,0.2c0.2,0,0.4-0.1,0.5-0.6c0.1-0.9,0.2-2.7,0.2-4.3
				c-0.8-0.4-3.6-1.8-8.1-1.8c-6.9,0-11.2,3.6-11.2,8.4c0,4.6,3.2,6.7,6.6,7.9c0.8,0.3,2.3,0.8,3.1,1.1c3.6,1.2,4.7,2.3,4.7,4
				c0,2.2-2.4,3.3-6.4,3.3c-3.3,0-5.6-1.2-6.5-1.6c-0.2-0.1-0.3-0.2-0.6-0.2c-0.5,0-0.5,0.6-0.5,0.7c0,0.3-0.2,3.2-0.2,4.2
				C393.5,60.1,396.8,61.6,401.2,61.6z"/>
			<path class="st0" d="M388.5,44.3c0-6.8-3.9-12.3-12.1-12.3c-8.3,0-13,6.2-13,14.8c0,10.1,5.4,14.7,14.5,14.7
				c4.7,0,8.1-1.3,8.8-1.5c0-0.7-0.1-3.4-0.2-4.7c0-0.3-0.1-0.6-0.5-0.6c-0.2,0-0.3,0.1-0.5,0.2c-1,0.5-3.5,1.6-6.7,1.6
				c-5.7,0-8.8-3.5-8.8-8.4h18.2C388.4,46.4,388.5,45.1,388.5,44.3z M370.2,43.9c0.2-4.4,2.4-7.1,6.2-7.1c3.6,0,6.1,2.6,5.8,7.1
				H370.2z"/>
			<path class="st0" d="M352.3,61V42.7c0-3.5-1.6-5.6-4.6-5.6c-4,0-6.6,4.2-6.6,9.9V61h-6.4c0,0,0-20.3,0-20.9
				c0-2.3-0.2-5.6-0.3-7.5c0,0,3,0,5.2,0c0.6,0,0.7,0.2,0.7,0.8c0,0.6,0.1,3.5,0.1,3.5h0.1c0.8-1.3,2.8-4.9,8.7-4.9
				c6.1,0,9.6,4.2,9.6,8.9V61H352.3z"/>
			<path class="st0" d="M293.6,47.2V61h-6.5c0,0,0-19.2,0-21.1c0-2-0.2-5.9-0.3-7.3c0,0,2.8,0,5.2,0c0.6,0,0.7,0.2,0.7,0.8
				c0,0.8,0,3.5,0,3.5h0.2c0.5-1.2,2.3-4.9,7.7-4.9c1.8,0,3.1,0.6,3.3,0.7c0,1.2-0.1,3.9-0.2,4.6c0,0.5-0.2,0.6-0.5,0.6
				c-0.2,0-0.3,0-0.4-0.1c-0.4-0.2-1.3-0.5-2.6-0.5C296.8,37.4,293.6,39.8,293.6,47.2z"/>
			<rect x="307.7" y="22.3" class="st0" width="6.4" height="38.8"/>
			<rect x="273.6" y="32.6" class="st0" width="6.5" height="28.4"/>
			<rect x="273.6" y="22.2" class="st0" width="6.6" height="6.2"/>
			<rect x="321.2" y="32.6" class="st0" width="6.4" height="28.4"/>
			<rect x="321.1" y="22.2" class="st0" width="6.6" height="6.2"/>
			<path class="st0" d="M257,23.7h-7.5L235.4,61h6.7l3-8.4h15.8l2.9,8.4h7.1L257,23.7z M246.9,47.6l6.1-17.1h0.1l6.1,17.1H246.9z"/>
		</g>
	</g>
	<g id="Flight_Symbol_5_">
		
			<linearGradient id="Red_Gradient_00000122683043558769603140000000795149310702380191_" gradientUnits="userSpaceOnUse" x1="474.2783" y1="47.0893" x2="474.2783" y2="97.1587">
			<stop  offset="0" style="stop-color:#ED1C24"/>
			<stop  offset="0.1471" style="stop-color:#E51C24"/>
			<stop  offset="0.2996" style="stop-color:#D61C23"/>
			<stop  offset="0.4545" style="stop-color:#C11A20"/>
			<stop  offset="0.6112" style="stop-color:#A4171C"/>
			<stop  offset="0.7677" style="stop-color:#821013"/>
			<stop  offset="0.81" style="stop-color:#780E0F"/>
		</linearGradient>
		<path id="Red_Gradient_1_" style="fill:url(#Red_Gradient_00000122683043558769603140000000795149310702380191_);" d="M460.5,73.3
			c4.4,7.3,11.5,7.1,13.3,7.1h22.7l-26.8-32.5c-12.3,0.5-18.9,8.4-17.5,11.8L460.5,73.3z"/>
		
			<linearGradient id="Beak_Shadow_00000053537416820478910340000000007404248921721484_" gradientUnits="userSpaceOnUse" x1="451.4793" y1="51.2552" x2="469.7528" y2="51.2552">
			<stop  offset="0" style="stop-color:#69231D"/>
			<stop  offset="0.1406" style="stop-color:#7A2720"/>
			<stop  offset="0.5166" style="stop-color:#A72F27"/>
			<stop  offset="0.8162" style="stop-color:#C5332A"/>
			<stop  offset="1" style="stop-color:#D1342A"/>
		</linearGradient>
		<path id="Beak_Shadow_3_" style="fill:url(#Beak_Shadow_00000053537416820478910340000000007404248921721484_);" d="M452.2,59.7
			c0-0.1-0.7-1.7-0.7-3.7c0-7.4,6.6-11.7,14-13.2l4.2,5.1C457.4,48.5,450.9,56.4,452.2,59.7z"/>
		
			<linearGradient id="Beak_00000027595100338702337350000004495501252493774475_" gradientUnits="userSpaceOnUse" x1="449.472" y1="48.5849" x2="469.8341" y2="36.3501">
			<stop  offset="0.1" style="stop-color:#EFF2F4"/>
			<stop  offset="0.3638" style="stop-color:#D5DDE1"/>
			<stop  offset="0.8932" style="stop-color:#A1B0B9"/>
			<stop  offset="1" style="stop-color:#96A7B0"/>
		</linearGradient>
		<path id="Beak_3_" style="fill:url(#Beak_00000027595100338702337350000004495501252493774475_);" d="M462.5,35.6
			c-11.3,0-19.7,1.9-19.7,6.3c0,1.6,0.5,3,1.9,5.5l7.5,12.3c0-0.1-0.7-1.7-0.7-3.7c0-7.4,6.6-11.7,14-13.2c2.2-0.4,4.4-0.7,6.6-0.7
			c1.8,0,3.6,0.1,4.9,0.6C476.2,39.9,474.1,35.6,462.5,35.6z"/>
		
			<linearGradient id="Blue_Gradient_00000021083468691349781980000015255094115845753990_" gradientUnits="userSpaceOnUse" x1="438.2471" y1="38.2819" x2="438.2471" y2="3.6895">
			<stop  offset="0" style="stop-color:#1C2F72"/>
			<stop  offset="0.1391" style="stop-color:#004B88"/>
			<stop  offset="0.2977" style="stop-color:#0066A0"/>
			<stop  offset="0.4543" style="stop-color:#007EB7"/>
			<stop  offset="0.6056" style="stop-color:#0092CB"/>
			<stop  offset="0.75" style="stop-color:#00A1DB"/>
			<stop  offset="0.8847" style="stop-color:#00ABE7"/>
			<stop  offset="1" style="stop-color:#00AFEB"/>
		</linearGradient>
		<path id="Blue_Gradient_2_" style="fill:url(#Blue_Gradient_00000021083468691349781980000015255094115845753990_);" d="
			M432.9,27.9c3.1,5.1,4.3,6.4,11.6,6.4c5.4,0,14.1,0,14.1,0L439.1,9.7c-4.3-5.3-6.8-6.3-10.7-6.4h-10.5L432.9,27.9z"/>
	</g>
</g>
<g>
	<path class="st0" d="M503.4,78.6c0,1-0.8,1.8-1.8,1.8c-1,0-1.8-0.8-1.8-1.8c0-1,0.8-1.8,1.8-1.8C502.6,76.8,503.4,77.6,503.4,78.6z
		 M500.1,78.6c0,0.8,0.7,1.5,1.5,1.5s1.5-0.7,1.5-1.5c0-0.8-0.7-1.5-1.5-1.5S500.1,77.8,500.1,78.6z M501.6,78.7h-0.2v0.8h-0.3v-1.8
		c0,0,0.3,0,0.5,0c0.4,0,0.6,0.2,0.6,0.5c0,0.4-0.3,0.5-0.4,0.5l0.4,0.8H502L501.6,78.7z M501.5,78.5c0.3,0,0.4-0.1,0.4-0.3
		c0-0.2-0.1-0.3-0.4-0.3c-0.1,0-0.1,0-0.1,0v0.6C501.4,78.5,501.5,78.5,501.5,78.5z"/>
</g>
</svg>
