<?xml version="1.0" encoding="utf-8"?>
<!-- Generator: Adobe Illustrator 27.1.1, SVG Export Plug-In . SVG Version: 6.00 Build 0)  -->
<svg version="1.1" id="Capa_1" xmlns="http://www.w3.org/2000/svg" xmlns:xlink="http://www.w3.org/1999/xlink" x="0px" y="0px"
	 viewBox="0 0 512 136.2" style="enable-background:new 0 0 512 136.2;" xml:space="preserve">
<style type="text/css">
	.st0{fill:#DB0809;}
</style>
<g>
	<path class="st0" d="M393.3,17.2c0,0,8.9,38.5,34.7,69.2c0,0-30-1-40.5-21.3C377.9,46.4,384.7,27.3,393.3,17.2z"/>
	<path class="st0" d="M437.7,96.8c9.8,9.3,21.5,17.1,35.4,22c0,0-18.7,1.6-30-3.8c-11.3-5.4-23-14.5-30.2-15.1s-11.5-1-13.4-3
		L437.7,96.8L437.7,96.8z"/>
	<path class="st0" d="M454.4,97.6C449.9,86.8,428,86.4,428,86.4s5.9,6.6,9.7,10.4C437.7,96.8,451.1,96.4,454.4,97.6z"/>
	<path class="st0" d="M93.3,49.3h13.4l12.2,31.9l11.7-31.9h13.8l-21,49.8c0,0-2.3,0-4.4,0s-5.1-0.2-8.3-8.4
		C107.4,82.4,93.3,49.3,93.3,49.3z"/>
	<rect x="148.4" y="49.3" class="st0" width="13.2" height="49.8"/>
	<path class="st0" d="M162.6,35.3c0,4.2-3.4,7.6-7.6,7.6c-4.2,0-7.6-3.4-7.6-7.6c0-4.2,3.4-7.6,7.6-7.6
		C159.1,27.7,162.6,31.1,162.6,35.3z"/>
	<path class="st0" d="M266.1,99.1h-13.6v-34c0,0,0-7.2-7.6-5.6c-6.2,1.3-10.7,5.1-10.7,5.1V99h-13.6V49.3c0,0,11.9-3.7,12.9,4.7
		c0,0,7.6-6.3,17.1-6.3c9.5,0,15.5,6.8,15.5,13.8L266.1,99.1L266.1,99.1z"/>
	<path class="st0" d="M211.5,90.5c0,0,0-21.9,0-25.8c0-5.7-2.3-17.4-18.5-17.3c-15.5,0.1-21.2,6.6-21.2,6.6l5.1,8.3
		c0,0,2.4-4.1,12.3-4.1s8.6,8.6,8.6,8.6c-27.2-0.4-28.6,10.9-28.6,17.7c0,6.9,5.1,15,15.2,15c10.1,0,15.2-5,15.2-5
		c0.4,4.3,5.4,4.5,5.4,4.5h7.8C211.8,99.1,211.5,90.5,211.5,90.5z M198.6,86.4c0,0-3.5,2.6-9,2.6c-5.6,0-7.2-3.6-7.2-6.3
		c0-3.2,1.8-7,16.2-6.2V86.4z"/>
	<path class="st0" d="M360.6,90.5c0,0,0-21.9,0-25.8c0-5.7-2.3-17.4-18.5-17.3c-15.5,0.1-21.2,6.6-21.2,6.6l5.1,8.3
		c0,0,2.4-4.1,12.3-4.1s8.6,8.6,8.6,8.6c-27.2-0.4-28.6,10.9-28.6,17.7c0,6.9,5.1,15,15.2,15s15.2-5,15.2-5c0.4,4.3,5.4,4.5,5.4,4.5
		h7.8C360.8,99.1,360.6,90.5,360.6,90.5z M347.6,86.4c0,0-3.5,2.6-9,2.6c-5.6,0-7.2-3.6-7.2-6.3c0-3.2,1.8-7,16.2-6.2L347.6,86.4
		L347.6,86.4z"/>
	<path class="st0" d="M312.3,62.7c0,0-4.4-4.5-13.2-4.5c-9.6,0-13.4,9.5-13.4,17.5s6,13.6,14.6,13.6c6.5,0,11.6-3.9,11.6-3.9
		l3.5,9.6c0,0-7.3,5.1-18.9,5.1c-8,0-23.6-5.4-23.6-24.7c0-19.4,12.8-27.7,25.1-27.5c11,0.1,15.3,3.9,15.3,3.9L312.3,62.7z"/>
	<path class="st0" d="M75.2,30H65.1L38.8,99.1h13.8l5.6-17.5h23.9l7,17.5h13.8L75.2,30z M62.7,70.5l7.5-20.9l7.5,20.9H62.7z"/>
</g>
</svg>
