<?xml version="1.0" encoding="utf-8"?>
<!-- Generator: Adobe Illustrator 27.1.1, SVG Export Plug-In . SVG Version: 6.00 Build 0)  -->
<svg version="1.1" id="Capa_1" xmlns="http://www.w3.org/2000/svg" xmlns:xlink="http://www.w3.org/1999/xlink" x="0px" y="0px"
	 viewBox="0 0 512 136.2" style="enable-background:new 0 0 512 136.2;" xml:space="preserve">
<style type="text/css">
	.st0{fill:#DB0809;}
</style>
<g>
	<path class="st0" d="M414,9.5c0,0,10.2,44.3,39.9,79.6c0,0-34.5-1.1-46.6-24.5C396.3,43.1,404.1,21.1,414,9.5z"/>
	<path class="st0" d="M465.2,101.1c11.3,10.7,24.8,19.7,40.8,25.3c0,0-21.5,1.8-34.5-4.4s-26.5-16.7-34.8-17.4s-13.2-1.2-15.4-3.4
		H465.2z"/>
	<path class="st0" d="M484.4,102.1C479.2,89.6,454,89.2,454,89.2s6.8,7.6,11.2,12C465.2,101.1,480.6,100.7,484.4,102.1z"/>
	<path class="st0" d="M68.7,46.5h15.4l14,36.7l13.5-36.7h15.9l-24.2,57.3c0,0-2.7,0-5.1,0c-2.4,0-5.9-0.2-9.5-9.7
		C85,84.6,68.7,46.5,68.7,46.5z"/>
	<rect x="132.1" y="46.5" class="st0" width="15.2" height="57.3"/>
	<path class="st0" d="M148.5,30.4c0,4.8-3.9,8.8-8.8,8.8c-4.8,0-8.8-3.9-8.8-8.8c0-4.8,3.9-8.8,8.8-8.8
		C144.5,21.6,148.5,25.5,148.5,30.4z"/>
	<path class="st0" d="M267.6,103.8h-15.6V64.7c0,0,0-8.3-8.8-6.4c-7.1,1.5-12.3,5.9-12.3,5.9v39.5h-15.6V46.5c0,0,13.7-4.3,14.9,5.4
		c0,0,8.8-7.3,19.7-7.3c10.9,0,17.8,7.8,17.8,15.9V103.8z"/>
	<path class="st0" d="M204.8,93.9c0,0,0-25.2,0-29.7c0-6.6-2.7-20-21.3-19.9c-17.8,0.1-24.4,7.6-24.4,7.6l5.9,9.5
		c0,0,2.8-4.7,14.2-4.7c11.4,0,9.9,9.9,9.9,9.9c-31.3-0.5-32.9,12.5-32.9,20.4s5.9,17.3,17.5,17.3c11.6,0,17.5-5.7,17.5-5.7
		c0.5,5,6.2,5.2,6.2,5.2h9C205.1,103.8,204.8,93.9,204.8,93.9z M189.9,89.2c0,0-4,3-10.4,3s-8.3-4.1-8.3-7.3c0-3.7,2.1-8.1,18.7-7.1
		V89.2z"/>
	<path class="st0" d="M376.4,93.9c0,0,0-25.2,0-29.7c0-6.6-2.7-20-21.3-19.9c-17.8,0.1-24.4,7.6-24.4,7.6l5.9,9.5
		c0,0,2.8-4.7,14.2-4.7s9.9,9.9,9.9,9.9c-31.3-0.5-32.9,12.5-32.9,20.4s5.9,17.3,17.5,17.3c11.6,0,17.5-5.7,17.5-5.7
		c0.5,5,6.2,5.2,6.2,5.2h9C376.6,103.8,376.4,93.9,376.4,93.9z M361.4,89.2c0,0-4,3-10.4,3c-6.4,0-8.3-4.1-8.3-7.3
		c0-3.7,2.1-8.1,18.7-7.1V89.2z"/>
	<path class="st0" d="M320.8,61.9c0,0-5.1-5.2-15.2-5.2c-11.1,0-15.4,10.9-15.4,20.1s6.9,15.6,16.8,15.6c7.5,0,13.3-4.5,13.3-4.5
		l4,11.1c0,0-8.4,5.9-21.8,5.9c-9.2,0-27.2-6.2-27.2-28.4c0-22.3,14.7-31.9,28.9-31.7c12.7,0.1,17.6,4.5,17.6,4.5L320.8,61.9z"/>
	<path class="st0" d="M47.9,24.2H36.3L6,103.8h15.9l6.4-20.1h27.5l8.1,20.1h15.9L47.9,24.2z M33.5,70.9l8.6-24l8.6,24H33.5z"/>
</g>
</svg>
