<?xml version="1.0" encoding="utf-8"?>
<!-- Generator: Adobe Illustrator 27.1.1, SVG Export Plug-In . SVG Version: 6.00 Build 0)  -->
<svg version="1.1" id="Camada_1" xmlns="http://www.w3.org/2000/svg" xmlns:xlink="http://www.w3.org/1999/xlink" x="0px" y="0px"
	 viewBox="0 0 512 150.4" style="enable-background:new 0 0 512 150.4;" xml:space="preserve">
<style type="text/css">
	.st0{fill:#5060AB;}
	.st1{fill:#8D2E8D;}
	.st2{fill:#5D80C0;}
	.st3{fill:#EF4D25;}
	.st4{fill:#D42429;}
	.st5{fill:#F7A01E;}
	.st6{fill:#6995CD;}
	.st7{fill:#2F6EB5;}
	.st8{fill:#71CBDF;}
	.st9{fill:#91C73E;}
	.st10{fill:#159CD6;}
	.st11{fill:#159AA6;}
	.st12{fill:#A5BFDF;}
	.st13{fill:#37BCB2;}
	.st14{fill:#AD2057;}
	.st15{fill:#75C59A;}
	.st16{fill:#E5DF1B;}
	.st17{fill:#21BED2;}
	.st18{fill:#6BA9DA;}
	.st19{fill:#E14E9A;}
	.st20{fill:#60449A;}
	.st21{fill:#FAD803;}
	.st22{fill:#00B8E7;}
	.st23{fill:#34B04A;}
	.st24{fill:#E7B720;}
	.st25{fill:#B9D232;}
	.st26{fill:#011E41;}
</style>
<g>
	<g>
		<rect x="456.4" y="20.8" class="st0" width="7.7" height="6.1"/>
		<rect x="427.9" y="86.1" class="st1" width="23.6" height="25.2"/>
		<rect x="443.5" y="116.7" class="st2" width="15.5" height="9.4"/>
		<rect x="434.3" y="121.1" class="st3" width="18.7" height="18.5"/>
		<rect x="457.4" y="104.3" class="st4" width="16" height="7"/>
		<rect x="451.5" y="91.6" class="st5" width="16.4" height="4.1"/>
		<rect x="473.4" y="104.3" class="st6" width="11.5" height="3.2"/>
		<rect x="451.5" y="71.5" class="st7" width="15.7" height="20.1"/>
		<rect x="420.9" y="56.1" class="st8" width="30.6" height="30"/>
		<rect x="403.1" y="56.1" class="st9" width="20.4" height="16.6"/>
		<rect x="429.7" y="27.9" class="st0" width="34.6" height="28.3"/>
		<rect x="467.2" y="59.7" class="st10" width="25.2" height="30.8"/>
		<rect x="463.2" y="77.3" class="st5" width="21.6" height="27.1"/>
		<rect x="451.5" y="95.6" class="st4" width="16" height="15.6"/>
		<rect x="442.2" y="105.5" class="st11" width="20.6" height="11.3"/>
		<rect x="484.8" y="87.8" class="st12" width="4.4" height="13.6"/>
		<rect x="492.4" y="58.8" class="st13" width="11.5" height="7.1"/>
		<rect x="491.3" y="65.9" class="st14" width="8.3" height="4.6"/>
		<rect x="451.5" y="44" class="st15" width="15.7" height="27.5"/>
		<rect x="467.2" y="32.9" class="st16" width="21.1" height="26.8"/>
		<rect x="464.3" y="27.9" class="st17" width="15.4" height="25.1"/>
		<rect x="485" y="52.3" class="st18" width="21" height="7.4"/>
		<rect x="488.3" y="36.2" class="st19" width="10" height="16.2"/>
		<rect x="495.3" y="41.3" class="st20" width="9.3" height="6.8"/>
		<rect x="492.9" y="48.1" class="st21" width="13.1" height="6.8"/>
		<rect x="456.3" y="20.6" class="st0" width="7.9" height="6.4"/>
		<rect x="429.7" y="20.7" class="st0" width="14.3" height="15.8"/>
		<rect x="385.5" y="20.7" class="st22" width="44.2" height="35.5"/>
		<rect x="408.2" y="8.5" class="st23" width="15.4" height="20"/>
		<rect x="376.2" y="53.2" class="st24" width="28.5" height="11.1"/>
		<rect x="443.9" y="10.3" class="st25" width="11.1" height="17.6"/>
		<rect x="458.7" y="77.3" class="st9" width="4.5" height="4.5"/>
	</g>
	<g>
		<path class="st26" d="M298.9,53.2h-28.3v46.2c0,15.3-9.3,19.3-15.5,19.3c-9,0-14-4-14-15.5v-50H213V105c0,22.6,7.1,36.9,31.9,36.9
			c10,0,20.9-5.5,26.3-14.3h0.3v11.8h27.4V53.2z"/>
		<path class="st26" d="M305.6,139.4h28.2V20.8h-28.2V139.4z M128.1,139.4h82.1v-21.6H164l43-43.2V53.2h-75.4v21.6h39.5l-43,42.7
			V139.4z M6,139.4h31.7l7.5-21.3h41.4l7.3,21.3h32.2L81.8,20.8H50.4L6,139.4z M65.8,53.7h0.3l13.1,41.5H52.4L65.8,53.7z"/>
	</g>
</g>
</svg>
