<?xml version="1.0" encoding="utf-8"?>
<!-- Generator: Adobe Illustrator 27.1.1, SVG Export Plug-In . SVG Version: 6.00 Build 0)  -->
<svg version="1.1" id="Camada_1" xmlns="http://www.w3.org/2000/svg" xmlns:xlink="http://www.w3.org/1999/xlink" x="0px" y="0px"
	 viewBox="0 0 512 150.4" style="enable-background:new 0 0 512 150.4;" xml:space="preserve">
<style type="text/css">
	.st0{fill:#5060AB;}
	.st1{fill:#8D2E8D;}
	.st2{fill:#5D80C0;}
	.st3{fill:#EF4D25;}
	.st4{fill:#D42429;}
	.st5{fill:#F7A01E;}
	.st6{fill:#6995CD;}
	.st7{fill:#2F6EB5;}
	.st8{fill:#71CBDF;}
	.st9{fill:#91C73E;}
	.st10{fill:#159CD6;}
	.st11{fill:#159AA6;}
	.st12{fill:#A5BFDF;}
	.st13{fill:#37BCB2;}
	.st14{fill:#AD2057;}
	.st15{fill:#75C59A;}
	.st16{fill:#E5DF1B;}
	.st17{fill:#21BED2;}
	.st18{fill:#6BA9DA;}
	.st19{fill:#E14E9A;}
	.st20{fill:#60449A;}
	.st21{fill:#FAD803;}
	.st22{fill:#00B8E7;}
	.st23{fill:#34B04A;}
	.st24{fill:#E7B720;}
	.st25{fill:#B9D232;}
	.st26{fill:#011E41;}
</style>
<g>
	<g>
		<rect x="433.3" y="27.1" class="st0" width="6.8" height="5.4"/>
		<rect x="408.1" y="84.8" class="st1" width="20.9" height="22.3"/>
		<rect x="421.9" y="111.9" class="st2" width="13.7" height="8.3"/>
		<rect x="413.8" y="115.8" class="st3" width="16.5" height="16.4"/>
		<rect x="434.2" y="100.9" class="st4" width="14.2" height="6.2"/>
		<rect x="429" y="89.7" class="st5" width="14.5" height="3.6"/>
		<rect x="448.3" y="100.9" class="st6" width="10.2" height="2.8"/>
		<rect x="429" y="71.9" class="st7" width="13.9" height="17.8"/>
		<rect x="401.9" y="58.3" class="st8" width="27.1" height="26.5"/>
		<rect x="386.1" y="58.3" class="st9" width="18" height="14.7"/>
		<rect x="409.7" y="33.4" class="st0" width="30.6" height="25"/>
		<rect x="442.9" y="61.5" class="st10" width="22.3" height="27.3"/>
		<rect x="439.3" y="77.1" class="st5" width="19.1" height="24"/>
		<rect x="429" y="93.2" class="st4" width="14.2" height="13.8"/>
		<rect x="420.7" y="102" class="st11" width="18.2" height="10"/>
		<rect x="458.4" y="86.3" class="st12" width="3.9" height="12"/>
		<rect x="465.2" y="60.7" class="st13" width="10.2" height="6.3"/>
		<rect x="464.2" y="67" class="st14" width="7.3" height="4.1"/>
		<rect x="429" y="47.6" class="st15" width="13.9" height="24.3"/>
		<rect x="442.9" y="37.8" class="st16" width="18.7" height="23.7"/>
		<rect x="440.3" y="33.4" class="st17" width="13.6" height="22.2"/>
		<rect x="458.6" y="54.9" class="st18" width="18.6" height="6.5"/>
		<rect x="461.5" y="40.7" class="st19" width="8.8" height="14.3"/>
		<rect x="467.7" y="45.2" class="st20" width="8.2" height="6"/>
		<rect x="465.6" y="51.2" class="st21" width="11.6" height="6"/>
		<rect x="433.2" y="26.9" class="st0" width="7" height="5.7"/>
		<rect x="409.7" y="27" class="st0" width="12.7" height="14"/>
		<rect x="370.6" y="27" class="st22" width="39.1" height="31.4"/>
		<rect x="390.7" y="16.2" class="st23" width="13.6" height="17.7"/>
		<rect x="362.3" y="55.7" class="st24" width="25.2" height="9.8"/>
		<rect x="422.2" y="17.8" class="st25" width="9.8" height="15.6"/>
		<rect x="435.3" y="77.1" class="st9" width="4" height="4"/>
	</g>
	<g>
		<path class="st26" d="M294,55.7h-25v40.9c0,13.5-8.2,17.1-13.7,17.1c-8,0-12.4-3.5-12.4-13.7V55.7H218v45.8
			c0,20,6.3,32.6,28.2,32.6c8.8,0,18.5-4.9,23.3-12.7h0.3V132H294L294,55.7L294,55.7z"/>
		<path class="st26" d="M299.9,132h24.9V27.1h-24.9V132z M142.8,132h72.6v-19.1h-40.9l38-38.2V55.7h-66.7v19.1h34.9l-38,37.8V132z
			 M34.8,132h28l6.6-18.8h36.6l6.5,18.8h28.5L101.9,27.1H74.1L34.8,132z M87.7,56.2H88l11.6,36.7H75.9L87.7,56.2z"/>
	</g>
</g>
</svg>
