<?xml version="1.0" encoding="utf-8"?>
<!-- Generator: Adobe Illustrator 27.1.1, SVG Export Plug-In . SVG Version: 6.00 Build 0)  -->
<svg version="1.1" id="Layer_1" xmlns="http://www.w3.org/2000/svg" xmlns:xlink="http://www.w3.org/1999/xlink" x="0px" y="0px"
	 viewBox="0 0 512 128.3" style="enable-background:new 0 0 512 128.3;" xml:space="preserve">
<style type="text/css">
	.st0{fill:url(#path70_00000065774637072327223260000005186930638360543104_);}
	.st1{fill:url(#path92_00000163038106056555184770000011633500097998223748_);}
	.st2{fill:url(#path114_00000104700147608378599240000002077023167369172641_);}
</style>
<g id="g10" transform="matrix(1.25,0,0,-1.25,-355.64249,617.57738)">
	<g id="g50" transform="matrix(2.2133966,0,0,2.2133966,72.763169,-317.04835)">
		<g id="g52">
			<g id="g58">
				<g id="g60">
					
						<linearGradient id="path70_00000093867147624988800650000015523355493328606379_" gradientUnits="userSpaceOnUse" x1="-389.7658" y1="-777.7867" x2="-388.5158" y2="-777.7867" gradientTransform="matrix(0 76.9565 76.9565 0 60017.4336 30318.8164)">
						<stop  offset="0" style="stop-color:#A61C22"/>
						<stop  offset="0.8" style="stop-color:#DA1C2D"/>
						<stop  offset="1" style="stop-color:#DA1C2D"/>
					</linearGradient>
					<path id="path70" style="fill:url(#path70_00000093867147624988800650000015523355493328606379_);" d="M209.2,359.2
						c-1.6-2.4-3.4-5.4-5.3-9.2l0,0c-1.9-3.8-3.7-7.8-4.8-10.7l0,0h6.5c0.4,1.2,0.9,2.5,1.4,3.7l0,0h10.7c0.5-1.2,1-2.4,1.4-3.7l0,0
						h6.5c-1.2,3-2.8,6.9-4.8,10.7l0,0c-1.9,3.8-3.7,6.8-5.3,9.2l0,0L209.2,359.2L209.2,359.2z M212.3,354.5
						c1.3-2.4,2.5-4.8,3.9-7.8l0,0h-7.8C209.8,349.6,211,352,212.3,354.5 M162.6,359.2c-0.3-3.1-0.5-6.7-0.5-10l0,0
						c0-3.2,0.2-6.5,0.5-10l0,0h6.2c-0.3,2.6-0.4,4.8-0.5,7.4l0,0h6.2c0.5-0.5,1.2-1.4,2-2.7l0,0c0.9-1.4,1.6-2.8,2.4-4.7l0,0h6.9
						c-0.9,1.7-1.9,3.3-3.4,5.4l0,0c-0.8,1.2-1.6,2.1-2.4,2.9l0,0c2.6,0.9,4.2,3.1,4.2,5.7l0,0c0,1.5-0.5,2.9-1.5,3.9l0,0
						c-1.3,1.4-3.4,2-6.8,2l0,0H162.6L162.6,359.2z M168.5,355.5h5.4c2,0,3-0.2,3.6-0.9l0,0c0.4-0.4,0.6-1,0.6-1.6l0,0
						c0-1.1-0.6-2-1.5-2.6l0,0h-8.3C168.3,351.8,168.4,353.5,168.5,355.5 M138,359.2c-0.3-3.2-0.5-6.7-0.5-10l0,0
						c0-3.2,0.2-6.8,0.5-9.9l0,0h19c-0.1,1.3-0.2,2.5-0.2,4l0,0h-12.9c-0.1,1.5-0.1,2.9-0.1,4.2l0,0h11.9v3.8h-11.9
						c0,1.1,0,2.7,0.1,4l0,0h12.9c0.1,1.4,0.1,2.6,0.3,4l0,0H138L138,359.2z M110.9,359.2c-0.3-3-0.5-6.7-0.5-10l0,0
						c0-3.2,0.1-6.4,0.5-10l0,0h11.7c4.2,0,6.7,0.5,8.3,1.6l0,0c1.2,0.8,2,2.5,2,4.4l0,0c0,2.2-1.2,3.9-3.4,4.8l0,0
						c1.4,0.8,2.4,2.4,2.4,4.1l0,0c0,1.6-0.5,2.7-1.5,3.5l0,0c-1.7,1.5-4.8,1.6-8.2,1.6l0,0H110.9z M116.8,355.4h5.2
						c2.1,0,2.8-0.2,3.4-0.8l0,0c0.3-0.3,0.5-0.9,0.5-1.5l0,0c0-0.8-0.3-1.6-1-2l0,0h-8.3C116.6,352.6,116.7,354,116.8,355.4
						 M116.6,347.6h7.5c1.1,0,1.6-0.1,2.1-0.6l0,0c0.5-0.4,0.7-0.9,0.7-1.5l0,0c0-0.7-0.2-1.2-0.6-1.6l0,0c-0.6-0.5-1.4-0.8-2.8-0.8
						l0,0h-6.6C116.6,344.6,116.6,346.2,116.6,347.6 M190.3,359.2c-0.3-2.8-0.5-6.6-0.5-10.1l0,0c0-3.4,0.1-6.6,0.5-9.8l0,0h5.3
						c0.4,3.2,0.5,6.4,0.5,9.8l0,0c0,3.5-0.2,7.3-0.5,10.1l0,0L190.3,359.2L190.3,359.2z M98.3,359.2c-0.3-2.8-0.5-6.6-0.5-10.1l0,0
						c0-3.4,0.1-6.6,0.5-9.8l0,0h5.3c0.4,3.2,0.5,6.4,0.5,9.8l0,0c0,3.5-0.2,7.3-0.5,10.1l0,0L98.3,359.2L98.3,359.2z"/>
				</g>
			</g>
		</g>
	</g>
	<g id="g72" transform="matrix(2.2133966,0,0,2.2133966,72.763169,-317.04835)">
		<g id="g74">
			<g id="g80">
				<g id="g82">
					
						<linearGradient id="path92_00000178185201864568581240000000688336272001561766_" gradientUnits="userSpaceOnUse" x1="-376.2985" y1="-774.2599" x2="-375.0485" y2="-774.2599" gradientTransform="matrix(106.9535 61.7496 61.7496 -106.9535 88283.8984 -59252.9648)">
						<stop  offset="0" style="stop-color:#A61C22"/>
						<stop  offset="0.5" style="stop-color:#DC1C2E"/>
						<stop  offset="1" style="stop-color:#DC1C2E"/>
					</linearGradient>
					<path id="path92" style="fill:url(#path92_00000178185201864568581240000000688336272001561766_);" d="M234.9,332.8l-9.4-9.4v0
						c32.5,0,40.1,7.6,44.6,18l0,0l3.8,9.8C263,350.9,246.5,344.4,234.9,332.8"/>
				</g>
			</g>
		</g>
	</g>
	<g id="g94" transform="matrix(2.2133966,0,0,2.2133966,72.763169,-317.04835)">
		<g id="g96">
			<g id="g102">
				<g id="g104">
					
						<linearGradient id="path114_00000025414058599277520270000002023402041739255733_" gradientUnits="userSpaceOnUse" x1="-376.7273" y1="-769.4735" x2="-375.4774" y2="-769.4735" gradientTransform="matrix(71.8156 41.4627 41.4627 -71.8156 59205.1992 -39295.125)">
						<stop  offset="0" style="stop-color:#ED7417"/>
						<stop  offset="0.85" style="stop-color:#FACD08"/>
						<stop  offset="1" style="stop-color:#FACD08"/>
					</linearGradient>
					<path id="path114" style="fill:url(#path114_00000025414058599277520270000002023402041739255733_);" d="M256.8,354.9
						l-10.5-10.7c10,7.2,20,11.5,29.9,12.6l0,0l2.4,6.3C263.9,363.2,261.8,360,256.8,354.9"/>
				</g>
			</g>
		</g>
	</g>
</g>
</svg>
