<?xml version="1.0" encoding="utf-8"?>
<!-- Generator: Adobe Illustrator 27.1.1, SVG Export Plug-In . SVG Version: 6.00 Build 0)  -->
<svg version="1.1" id="Layer_1" xmlns="http://www.w3.org/2000/svg" xmlns:xlink="http://www.w3.org/1999/xlink" x="0px" y="0px"
	 viewBox="0 0 512 130" style="enable-background:new 0 0 512 130;" xml:space="preserve">
<style type="text/css">
	.st0{fill-rule:evenodd;clip-rule:evenodd;fill:#231F6E;}
	.st1{fill-rule:evenodd;clip-rule:evenodd;fill:#EC174B;}
</style>
<g>
	<g>
		<path class="st0" d="M406.2,93.9l15.1-58.2h16.6c0,0,4.2-0.4,6.4,1.3c2.2,1.7,2.8,4.4,2.8,4.4l9,28.1l11.8-33.8H484
			c0,0,4,0,6.1,1.6c2.1,1.6,2.7,4.1,2.7,4.1L506,93.9h-15.6l-11.8-44.7l-12.4,34.1h-16.6c0,0-2,0.2-3.9-1.1c-1.9-1.3-2-2.5-2-2.5
			l-10.1-30.5l-11.6,44.7L406.2,93.9z"/>
		<polygon class="st0" points="251.2,35.8 251.2,47.4 279.1,49.2 279.1,93.9 295.2,93.9 295.2,49.2 323.2,47.4 323.2,35.8 		"/>
		<path class="st0" d="M204.8,35.8l-29.1,58.2h17.9l5.1-10.7l32.4,0l5,10.7l17.8,0l-27.6-54.4c0,0-0.9-2-2.5-2.9
			c-1.6-0.9-3.2-0.9-3.2-0.9L204.8,35.8L204.8,35.8L204.8,35.8z M214.6,48.3l10.7,23.1h-21.5L214.6,48.3L214.6,48.3z"/>
		<polygon class="st0" points="114.3,35.8 114.3,93.9 163.4,93.9 170.1,80.6 131.1,80.6 131.1,35.8 		"/>
		<path class="st0" d="M349.8,35.8l-29.1,58.2h17.9l5.1-10.7l32.4,0l5,10.7l17.8,0l-27.6-54.4c0,0-0.9-2-2.5-2.9
			c-1.6-0.9-3.2-0.9-3.2-0.9L349.8,35.8L349.8,35.8L349.8,35.8z M359.7,48.3l10.7,23.1h-21.5L359.7,48.3L359.7,48.3z"/>
	</g>
	<g>
		<path class="st1" d="M14.3,54.5l12.9-3.7c0,0-0.1-0.9-0.6-1.3c-0.5-0.4-1.3-0.7-1.3-0.7L7.4,42.3c0,0-0.6-0.2-1,0
			C6,42.6,6,43.2,6,43.2v8.3c0,0,0,0.8,1.1,2.6c1.2,1.8,3.9,1.3,3.9,1.3L14.3,54.5z"/>
		<path class="st1" d="M65.7,34.3l12-6.7c0,0,0.2-1.2-0.3-1.6c-0.5-0.4-1-0.6-1-0.6L24.6,7c0,0-0.6-0.2-1,0
			c-0.4,0.2-0.4,0.8-0.4,0.8V15c0,0,0,1.7,1.1,3.5c1.2,1.8,3,2.3,3,2.3L65.7,34.3z"/>
		<path class="st1" d="M65.7,55.3l12-6.2c0,0,0.3-1.6-0.2-2c-0.5-0.4-1.1-0.6-1.1-0.6l-69-25.1c0,0-0.6-0.2-1,0
			C6,21.6,6,22.2,6,22.2v7.2c0,0,0,1.7,1.1,3.5c1.2,1.8,3,2.3,3,2.3L65.7,55.3z"/>
	</g>
	<g>
		<path class="st0" d="M76.4,25.5c0,0,0.7,0.1,1.3,0.7c0.6,0.6,0.6,1.3,0.6,1.3V37c0,0,0,1.3-0.6,2.5c-0.5,1.2-1.3,1.4-1.3,1.4
			l-1.6,0.6L23,60.3c0,0-0.2,0.1-0.6,0.1c-0.3,0-0.6-0.1-0.6-0.1L7.4,55c0,0-0.4-0.1-0.9-0.9C6,53.3,6,51.5,6,51.5s0.1,0.9,0.6,1.3
			c0.5,0.4,1.9,0,1.9,0l66.3-24.1c0,0,2.6-1.1,2.6-2.2C77.4,25.8,76.4,25.5,76.4,25.5L76.4,25.5z"/>
		<path class="st0" d="M76.4,46.4c0,0,0.7,0.1,1.3,0.7c0.6,0.6,0.6,1.3,0.6,1.3v9.5c0,0,0,1.3-0.6,2.5c-0.5,1.2-1.3,1.4-1.3,1.4
			l-1.6,0.6L23,81.2V68.5l51.8-18.8c0,0,2.6-1.1,2.6-2.2C77.4,46.7,76.4,46.4,76.4,46.4L76.4,46.4z"/>
		<path class="st0" d="M50.7,79.9c0.5,0.5,0.5,1.6,0.5,1.6v7.1c0,0,0,1.3-0.6,2.5c-0.5,1.2-1.3,1.4-1.3,1.4l-1.6,0.6l-24.7,9V89.4
			l24.7-9C47.7,80.4,50.2,79.4,50.7,79.9L50.7,79.9z"/>
		<path class="st0" d="M34.8,106.6c0.5,0.5,0.5,1.6,0.5,1.6v7.1c0,0,0,1.3-0.6,2.5c-0.5,1.2-1.3,1.4-1.3,1.4l-1.6,0.6l-8.8,3.3
			v-12.8l8.8-3.3C31.7,107,34.3,106.1,34.8,106.6z"/>
	</g>
</g>
</svg>
