<?xml version="1.0" encoding="utf-8"?>
<!-- Generator: Adobe Illustrator 27.1.1, SVG Export Plug-In . SVG Version: 6.00 Build 0)  -->
<svg version="1.1" id="Layer_1" xmlns="http://www.w3.org/2000/svg" xmlns:xlink="http://www.w3.org/1999/xlink" x="0px" y="0px"
	 viewBox="0 0 512 166.9" style="enable-background:new 0 0 512 166.9;" xml:space="preserve">
<style type="text/css">
	.st0{fill-rule:evenodd;clip-rule:evenodd;fill:#808285;}
	.st1{fill-rule:evenodd;clip-rule:evenodd;fill:#93989C;}
	.st2{fill-rule:evenodd;clip-rule:evenodd;fill:#7A003C;}
	.st3{fill:#808285;}
	.st4{fill-rule:evenodd;clip-rule:evenodd;fill:none;}
</style>
<g>
	<g>
		<path class="st0" d="M393.4,30.9l37.8-2.3c-20-0.7-31.8-0.7-35.5-0.3l-5.6,1.2C389.4,30.3,390.6,30.7,393.4,30.9L393.4,30.9z"/>
		<path class="st0" d="M385,40.4l62.1-1.3L387,36.9c-8-0.5-12.4,0-13,1.5C372.7,40.4,376.6,41.1,385,40.4L385,40.4z"/>
		<path class="st0" d="M363,52.4l93.8-3.3L372.3,48c-6.4,0-9.7,0.7-9.7,2L363,52.4L363,52.4z"/>
		<path class="st0" d="M369.3,64.9l94.2-4.3L361.4,59c-2.7,0.3-4.1,0.9-4.4,2.3C356.6,64.2,360.6,65.3,369.3,64.9L369.3,64.9z"/>
		<path class="st0" d="M355.7,75.7l111.5-2.8l-103.1-2.9c-6.7,0-10.1,1.1-10.6,3.6C353.3,74.6,354.1,75.5,355.7,75.7L355.7,75.7z"/>
		<path class="st0" d="M354.8,87l35.3-0.4L395,81h-35.3c-5.3,0-7.7,1.2-7.1,3.6C352.8,85.9,353.4,86.8,354.8,87L354.8,87z"/>
		<path class="st0" d="M362.6,98.8l22.4-1.6l2.9-5.1l-26.2,0.4c-5.1,0-7.6,1.1-7.6,3.1c0,1.6,0.7,2.5,1.9,2.7L362.6,98.8L362.6,98.8
			z"/>
		<path class="st0" d="M366.1,109.5l56.8-2.3l-4-4l-54.8,0.4l-5.7,0.7c-0.7,0.5-0.9,1.3-0.7,2.5C358.1,109.2,361,110.1,366.1,109.5
			L366.1,109.5z"/>
		<path class="st0" d="M430.5,116.5l-56.6-0.4c-6.9,0-10,0.8-9.8,2.8c0.7,2.5,4.5,3.2,11.8,2.5l58-1.3L430.5,116.5L430.5,116.5z"/>
		<path class="st1" d="M437.5,128.1l-60.8-0.5c-1.3,0-2,0.5-2,1.6c0,2,4.3,2.9,12.6,2.4l56.2-2L437.5,128.1L437.5,128.1z"/>
		<path class="st1" d="M399.2,139.8l33.3-1.1l-34.9-1.3c-4.7-0.7-7.1-0.3-7.1,1.3L399.2,139.8L399.2,139.8z"/>
		<path class="st2" d="M493.8,15.1c-12.1,5.2-35.7,18.9-70.5,41.5c18-10,34.5-17.7,49.8-23.3l27.3-9.1l5.3,0.4
			c1.1,0.7-0.5,1.6-4.3,2.7c-6.4,2-18.2,6.9-35.5,14.9c-20,9.1-31.4,15.4-34.7,19.4l23,0.5c-3.3,4.1-7.3,6.4-12,6.7l-4.4,0.1
			c5.1,8.3,13.3,12.9,24.6,13.6l7.7,0.4l0.4,6l-32.3,3.2l31.3,2c0.4,4.7,0.3,7.1-0.4,7.1h-31.5l29,4.3l-1.7,7.5l-26.2,2l23.3,2.5
			l-5.5,7.5l-14.2,1.9l11,2.4l-12.1,8.4c-8.6-8.6-15.2-16-19.3-21.4l-8.5-11.8l-11.7,2.5c10.2-7.3,15.7-12.9,16.6-16.2
			c-0.3-6.4-0.7-10.6-1.3-13l-4.3,4.4c-0.7-6.4-1.7-10.4-2.8-12l-1.6,4.9l-7,6.1l5.1-0.4c-3.1,17-10,27.9-20.9,32.3l-6.4-6.7l4.4-4
			l-6.7,2l-1.3-2c6.5-10.8,11.6-18.4,15.6-22.8l19.3-17.6c10.9-9,20.9-16.6,30.3-22.6C465.2,24.4,483.1,15,493.8,11
			c4.3-1.6,6-1.3,4.9,0.4L493.8,15.1L493.8,15.1z"/>
	</g>
	<path class="st2" d="M312.6,144.6v-3.5c0-1.8,2.3-3.7,7-5.6l2.5-1.3v13h5.5v-14.2l-0.8-0.3c-0.1-0.3,0-0.7,0.3-1
		c0.5-0.5,2-1.5,4.5-3.1v22.4h-62.9c0,2.1-0.8,3.8-2.5,4.9l-3.5,1.1c-1.1,0-2.3-0.6-3.5-1.7c-0.7-0.6-0.5-0.9,0.2-1
		c1.7,0.5,3,0.3,4-0.6c1-0.7,1.5-1.5,1.5-2.7l0.2-11l-1.1-0.4c-0.3-0.3-0.1-0.6,0.4-0.9l4.4-3.2l0.1,11.9h5v-13.9
		c-1.2-0.5-1.2-1.3,0-2.2l4.1-2.9v11.1c1.1-1.1,2.7-1.6,4.7-1.6H298c1.7,0,3.2,0.5,4.7,1.7c1.5,1.2,2.2,2.9,2.2,5l0,2.8h13.4v-2.7
		H312.6L312.6,144.6z M243.2,130.6v16.7h12.3v-4.7c-1.3-0.3-1.5-1-0.3-2l4.2-2.9v13.3h-28.5l0.5-6.3c0-1.2,1.2-2.7,3.7-4.4
		c1.5-1,2.8-1.8,4-2.3l0.2-1.6c-1-0.3-1.3-0.7-1-1L243.2,130.6L243.2,130.6z M318.2,139.5c-1.8,0.5-2.7,1.2-2.7,2.2h2.7V139.5
		L318.2,139.5z M234.9,147.2h4.3V142l-3.3,1.7C234.9,144.3,234.6,145.6,234.9,147.2L234.9,147.2z M233.9,128.2
		c1.7,0,2.4,0.7,2.4,1.9c0,1-0.7,1.5-2.4,1.5c-1.3,0-1.9-0.5-1.9-1.5C231.9,128.8,232.6,128.2,233.9,128.2L233.9,128.2z
		 M239.1,128.2c1.7,0,2.5,0.7,2.5,1.9c0,1-0.8,1.5-2.5,1.5c-1.2,0-1.9-0.5-1.9-1.5C237.2,128.8,237.9,128.2,239.1,128.2L239.1,128.2
		z M247.1,152.3c1.5,0,2.3,0.7,2.3,1.9c0,1-0.8,1.5-2.3,1.5c-1.3,0-2-0.5-2-1.5C245.1,152.9,245.8,152.3,247.1,152.3L247.1,152.3z
		 M252.6,152.3c1.5,0,2.3,0.7,2.3,1.9c0,1-0.8,1.5-2.3,1.5c-1.3,0-2-0.5-2-1.5C250.6,152.9,251.3,152.3,252.6,152.3L252.6,152.3z
		 M313.9,127.8c1.7,0,2.4,0.7,2.4,1.9c0,1-0.7,1.5-2.4,1.5c-1.3,0-1.9-0.5-1.9-1.5C311.9,128.5,312.6,127.8,313.9,127.8L313.9,127.8
		z M319.3,127.8c1.6,0,2.3,0.7,2.3,1.9c0,1-0.7,1.5-2.3,1.5c-1.2,0-1.9-0.5-1.9-1.5C317.4,128.5,318.1,127.8,319.3,127.8
		L319.3,127.8z M300.8,147.2H278v-3.9c0.6-1.1,1.6-1.7,3.1-1.7h16.7c1.6,0,2.5,0.3,2.8,1.1l0.2,1.9L300.8,147.2L300.8,147.2z
		 M338.8,128.7v22.2h-4.2v-17.9c-0.4,0.1-0.7,0-0.7-0.3l0.3-1L338.8,128.7L338.8,128.7z"/>
	<g>
		<path class="st2" d="M142,112.8h15.5l-31-69.4h-5.8l-30.3,69.4h9l8.8-21.6h24.9L142,112.8z M110.9,84.9l9.9-24.2l9.9,24.2H110.9z"
			/>
		<path class="st2" d="M256.3,112.8h15.5l-31-69.4h-5.8l-30.3,69.4h9l8.8-21.6h24.9L256.3,112.8z M225.2,84.9l9.9-24.2l9.9,24.2
			H225.2z"/>
		<polygon class="st2" points="155.2,43.4 207.7,43.4 207.7,51.8 189,51.8 189,112.8 174.1,112.8 174.1,51.8 155.2,51.8 		"/>
		<g>
			<g>
				<path class="st2" d="M84.1,79c0-20.6-17.5-37.4-39.1-37.4C23.5,41.7,6,58.4,6,79c0,20.6,17.5,37.4,39.1,37.4
					c1.9,0,3.8-0.2,5.7-0.4l20.8,18.7l11.1-8.9l-21.9-12.6C74.5,107.5,84.1,94.4,84.1,79z M45.1,109.7C30.7,109.7,19.1,96,19.1,79
					c0-17,11.6-30.7,25.9-30.7C59.4,48.3,71,62.1,71,79C71,96,59.4,109.7,45.1,109.7z"/>
			</g>
		</g>
		<path class="st2" d="M312.8,80.5c7.2-1.5,17.7-8.3,17.7-21.9c0-13.7-16.1-15.1-16.1-15.1h-18.7h-5.7h-6.4v69.4h12.1V82h4.1
			l19.9,30.1h17.1L312.8,80.5z M295.6,76.2V47.1h15.7c0,0,8.4,4.7,8.4,13.4s-3.7,15.7-9,15.7C305.4,76.2,295.6,76.2,295.6,76.2z"/>
	</g>
	<g>
		<path class="st3" d="M95.1,126.5h3.3l8.9,22.7H104l-2.5-6.8h-9.6l-2.5,6.8h-3.1L95.1,126.5z M92.9,139.8h7.7l-3.8-10.6h-0.1
			L92.9,139.8z"/>
		<path class="st3" d="M109.7,126.5h3v22.7h-3V126.5z"/>
		<path class="st3" d="M117.8,126.5h10.7c4.3,0,6.9,2.3,6.9,5.9c0,2.7-1.2,5-3.9,5.7v0.1c2.6,0.5,3.2,2.4,3.4,4.7
			c0.2,2.2,0.1,4.7,1.3,6.3h-3.4c-0.9-0.9-0.4-3.4-0.8-5.6c-0.3-2.2-0.9-4.1-3.8-4.1h-7.4v9.7h-3V126.5z M127.1,137
			c2.8,0,5.2-0.7,5.2-4c0-2.2-1.2-3.9-4-3.9h-7.5v7.9H127.1z"/>
		<path class="st3" d="M159.4,149.2h-3.1l-5.2-19H151l-5.2,19h-3.1l-5.8-22.7h3.1l4.4,18.9h0.1l5.1-18.9h3.3l5,18.9h0.1l4.6-18.9h3
			L159.4,149.2z"/>
		<path class="st3" d="M173.7,126.5h3.3l8.9,22.7h-3.3l-2.5-6.8h-9.6l-2.5,6.8h-3.1L173.7,126.5z M171.5,139.8h7.7l-3.8-10.6h-0.1
			L171.5,139.8z"/>
		<path class="st3" d="M195.1,139.9v9.3h-3v-9.3l-8.8-13.4h3.6l6.8,10.8l6.6-10.8h3.4L195.1,139.9z"/>
		<path class="st3" d="M219.5,133.1c-0.3-3.2-2.5-4.6-5.6-4.6c-2.5,0-5.1,0.9-5.1,3.9c0,2.8,3.6,3.2,7.3,4c3.6,0.8,7.2,2.1,7.2,6.5
			c0,4.8-4.7,6.8-8.9,6.8c-5.1,0-9.4-2.5-9.4-8h2.9c0,3.8,3.2,5.5,6.6,5.5c2.7,0,5.7-0.9,5.7-4.1c0-3.1-3.6-3.6-7.2-4.4
			c-3.6-0.8-7.3-1.8-7.3-6c0-4.6,4.1-6.6,8.2-6.6c4.6,0,8.2,2.2,8.3,7.2H219.5z"/>
	</g>
</g>
<rect x="120.4" y="-185.5" class="st4" width="293" height="113"/>
</svg>
