<?xml version="1.0" encoding="utf-8"?>
<!-- Generator: Adobe Illustrator 27.1.1, SVG Export Plug-In . SVG Version: 6.00 Build 0)  -->
<svg version="1.1" id="Layer_1" xmlns="http://www.w3.org/2000/svg" xmlns:xlink="http://www.w3.org/1999/xlink" x="0px" y="0px"
	 viewBox="0 0 512 151.7" style="enable-background:new 0 0 512 151.7;" xml:space="preserve">
<style type="text/css">
	.st0{fill-rule:evenodd;clip-rule:evenodd;fill:#285382;}
	.st1{fill-rule:evenodd;clip-rule:evenodd;fill:#FFFFFF;}
	.st2{fill-rule:evenodd;clip-rule:evenodd;fill:#E64433;}
	.st3{fill-rule:evenodd;clip-rule:evenodd;fill:#369649;}
	.st4{fill-rule:evenodd;clip-rule:evenodd;fill:#040607;}
	.st5{fill-rule:evenodd;clip-rule:evenodd;fill:#FCE7BC;}
	.st6{clip-path:url(#SVGID_00000152982804450552078720000002269005217533705614_);}
	.st7{clip-path:url(#SVGID_00000181074763725179177080000017417097384653654420_);}
</style>
<g>
	<path class="st0" d="M192.7,115.5h8.1c-0.8,0.5-1,1-1.3,2.1c0,0.5-0.3,0.8-0.3,1.6v19.4c0,0.5,0.3,1,0.3,1.6
		c0.5,0.8,0.8,1.3,1.3,2.1h-8.1c0.5-0.8,0.8-1.3,1-2.1c0.3-0.5,0.3-1,0.3-1.6v-19.4c0-0.5,0-0.8,0-1.3
		C193.8,116.8,193.5,116.3,192.7,115.5L192.7,115.5z"/>
	<path class="st0" d="M173.4,122.3l3.4,8.1H170L173.4,122.3L173.4,122.3z M173.9,112.3c0.3,0.8,0.5,1,0.8,1.8c0.5,1,0.8,1.6,1.3,2.6
		c0.8,1.8,1.3,2.9,2.1,4.7c1,2.4,1.6,3.7,2.9,5.8c1.3,2.9,2.1,4.7,3.4,7.6c0.8,1.6,1,2.4,2.1,3.9c0.8,1.3,1.3,2.4,2.6,3.4h-9.4
		c0.8-0.8,1-1.3,1-2.1c0-1.3-0.5-2.1-1-3.4c-0.5-1-0.8-1.8-1.3-3.1h-9.9c-0.5,1.3-0.8,2.1-1.3,3.4c-0.5,1.3-1,1.8-1,3.1
		c0,1,0.3,1.6,0.8,2.1h-7.3c2.4-2.9,3.1-4.7,4.4-7.8c1.3-2.9,2.1-4.2,3.4-7.1c1-2.9,1.8-4.4,3.1-7.3c0.8-1.8,1.3-2.9,2.1-4.7
		C173.1,114.2,173.6,113.6,173.9,112.3L173.9,112.3z"/>
	<path class="st0" d="M208.7,115.5c5.2,0,7.8,0,12.8,0c3.9,0,7.3,2.4,7.6,6c0,0.5,0,0.8,0,1.6c0,1.3-0.3,2.1-0.8,3.1
		c-0.8,1-1,1.6-1.8,2.1c-1,0.8-1.6,0.8-2.6,1.3c2.6,3.4,3.9,5.2,6.3,8.6c1.3,1.6,2.1,2.6,3.7,4.2c1,1,1.8,1.6,2.9,2.4
		c0.5,0.5,1,0.5,1.3,1h-2.1h-2.1c-1,0-1.8-0.3-2.9-0.5c-1-0.5-1.6-1-2.6-2.1c-1.6-1.3-2.1-2.4-3.4-4.2c-1.6-2.1-2.4-3.4-3.9-5.8
		c-0.8-1-1.3-1.6-1.8-2.6c-0.5-0.5-0.8-0.8-1-1.3c1.3-0.3,1.8-0.5,2.9-1c1-0.8,1.6-1,2.1-2.1c0.5-0.8,0.8-1.3,0.8-2.4v-1.3
		c0-2.4-2.1-4.2-4.4-4.2c-1.6-0.3-2.4,0-3.9,0v19.9c0,0.8,0,1.3,0.3,1.8c0.3,0.8,0.5,1.3,1.3,2.1h-8.4c0.8-0.8,1-1.3,1.3-2.1
		c0.3-0.5,0.3-1,0.3-1.6v-19.6c0-0.5,0-0.8-0.3-1.6C209.7,116.5,209.5,116,208.7,115.5L208.7,115.5z"/>
	<path class="st0" d="M283.2,123.3l3.4,7.6h-6.8L283.2,123.3L283.2,123.3z M283.7,113.9c0.3,0.8,0.5,1,0.8,1.8
		c0.5,0.8,0.8,1.3,1,2.4c0.8,1.8,1.3,2.6,2.1,4.4c1,2.1,1.6,3.4,2.6,5.5c1.6,2.9,2.1,4.4,3.4,7.1c0.8,1.6,1,2.4,1.8,3.7
		c0.8,1.6,1.3,2.4,2.6,3.4h-8.9c0.5-0.8,1-1,1-1.8c0-1.3-0.5-2.1-1-3.1c-0.5-1.3-0.8-2.1-1.3-3.1h-9.4c-0.5,1-0.8,1.8-1.3,3.1
		c-0.5,1-0.8,1.8-0.8,3.1c0,0.8,0,1.3,0.8,1.8h-7.1c2.1-2.6,2.9-4.4,4.2-7.3c1.3-2.6,2.1-4.2,3.1-6.8c1-2.9,1.8-4.2,3.1-7.1
		c0.8-1.6,1-2.6,1.8-4.2C282.9,115.7,283.5,114.9,283.7,113.9L283.7,113.9z"/>
	<path class="st0" d="M332.6,114.9c0.5,0,0.8,0,1.3,0c0.8,0.3,1.3,0.3,2.1,0.5c0.8,0.3,1.3,0.3,2.1,0.8c0.3,0.3,0.5,0.3,0.8,0.5
		c0,0,0.3,0,0.3,0.3l-1.6,3.7c-0.3-0.5-0.5-0.8-0.8-1.3c-0.8-0.8-1.3-1.3-2.4-1.6c-0.8-0.5-1.6-0.8-2.6-0.8h-1.3
		c-0.5,0-1,0.3-1.6,0.5c-1.6,0.5-2.6,1.6-2.6,3.1c-0.3,0-0.3,0.3-0.3,0.3c0,1.6,0.8,2.4,2.1,3.1c1.8,1.3,3.1,1.8,5.5,2.9
		c3.4,1.6,5.8,3.7,6,7.3c0,0.5,0,0.5,0,1c-0.3,2.4-1,3.9-3.1,5.5c-1.8,1.3-3.4,1.6-5.8,1.8c-1.3,0-1.8,0-3.1,0
		c-1-0.3-1.6-0.3-2.6-0.5c-1.8-0.3-2.6-0.8-4.2-1.6l1.6-4.2c1.3,1.6,2.1,2.6,3.9,3.1c1,0.3,1.3,0.5,2.4,0.5h1.3c2.6,0,5-1.8,5-4.4
		c0-1.6-0.8-2.4-1.8-3.1c-2.1-1.6-3.4-2.1-5.5-3.1c-3.4-1.6-6-3.7-6-7.3c0-0.3,0-0.5,0-0.8c0.3-2.9,2.1-4.7,4.7-5.8
		c0.8-0.3,1.3-0.3,2.1-0.5c0.5,0,0.8,0,1.3,0H332.6L332.6,114.9z"/>
	<path class="st0" d="M304.1,142.1c1-1,0.8-2.4,0.8-3.1c0-1,0-9.2,0-9.2c-0.8-1.8-5.8-10.7-6.5-11.8c-0.8-1.3-1.6-2.1-2.6-2.6h7.6
		c-0.3,0.5-0.5,0.8-0.5,1.6c0,0.8,0.3,1,0.8,2.1c0.5,1.3,4.2,7.6,4.2,7.6s3.9-6.8,4.4-7.8c0.5-0.8,1-1.6,0.8-2.4c0-0.5,0-0.8-0.5-1
		h6.8c-2.6,2.1-2.9,2.9-4.2,5.2c-1.3,2.1-5.2,9.2-5.2,9.2s0,8.4,0,9.2c0,1,0,2.1,1,3.1H304.1L304.1,142.1z"/>
	<path class="st0" d="M235.6,115.5c1.8,1.6,2.4,2.9,2.6,3.7l6,22.8h4.4l4.7-14.1l4.7,14.1h4.4l6-22c0.5-1.8,1-3.1,2.6-4.2h-6.3
		c0,0,1.3,0.5,0.5,2.9c-0.8,4.2-4.4,16.2-4.4,16.2l-7.3-19.4l-6.3,19.4c0,0-4.7-16.2-4.7-17.3c0-0.5,0-1.6,1-2.1H235.6L235.6,115.5z
		"/>
	<path class="st1" d="M6,5.9h41.8l52,47.9l7.6,6.5L138.1,88c3.9,3.7,7.8,7.6,12.3,9.7c1.3,0.5,3.4,1.3,5.2,1.8
		c3.1,0.8,5.2,1,7.6,1.6c3.9,0.8,7.1,1,7.1,1l-14.1,4.2H45L6,5.9L6,5.9z"/>
	<polygon class="st2" points="21.7,38.3 78.4,38.3 46.5,9 10.4,9 21.7,38.3 	"/>
	<polygon class="st1" points="108.8,65.8 114.3,70.5 46.3,101.9 45.7,100 108.8,65.8 	"/>
	<polygon class="st1" points="78.4,38.3 85.8,44.9 22.2,39.4 21.7,38.3 78.4,38.3 	"/>
	<polygon class="st3" points="22.2,39.4 85.8,44.9 108.8,65.8 45.7,100 90.5,58.2 22.2,39.4 	"/>
	<polygon class="st4" points="22.7,40.4 62.7,66.3 45.2,99 22.7,40.4 	"/>
	<path class="st5" d="M34.6,16.1c4.5,0,8.2,3.7,8.2,8.2s-3.7,8.2-8.2,8.2c-4.5,0-8.2-3.7-8.2-8.2S30.1,16.1,34.6,16.1L34.6,16.1z"/>
	<g>
		<defs>
			<path id="SVGID_1_" d="M34.6,16.1c4.5,0,8.2,3.7,8.2,8.2s-3.7,8.2-8.2,8.2c-4.5,0-8.2-3.7-8.2-8.2S30.1,16.1,34.6,16.1L34.6,16.1
				z"/>
		</defs>
		<clipPath id="SVGID_00000139294287806215760310000010905717282599201201_">
			<use xlink:href="#SVGID_1_"  style="overflow:visible;"/>
		</clipPath>
		<g style="clip-path:url(#SVGID_00000139294287806215760310000010905717282599201201_);">
			<defs>
				<rect id="SVGID_00000119098823111440855810000013249520704064470415_" x="26.4" y="16.1" width="16.5" height="16.5"/>
			</defs>
			<clipPath id="SVGID_00000157995767023512648630000014932007236190756753_">
				<use xlink:href="#SVGID_00000119098823111440855810000013249520704064470415_"  style="overflow:visible;"/>
			</clipPath>
			<g style="clip-path:url(#SVGID_00000157995767023512648630000014932007236190756753_);">
				
					<image style="overflow:visible;" width="20" height="16" xlink:href="2DBC944.jpg"  transform="matrix(1.3656 0 0 -1.3656 22.5536 35.3354)">
				</image>
			</g>
		</g>
	</g>
	<path class="st0" d="M177.5,81.2c-0.3-0.3-0.8-0.5-1-0.8c-2.6-1.8-4.2-2.4-7.1-3.9c-4.4-2.1-7.8-4.7-7.8-9.7c0-0.3,0-0.5,0-0.8
		c0.3-3.9,2.6-6.3,6.3-7.6c1-0.3,1.6-0.5,2.6-0.8c0.8,0,1,0,1.6,0h3.9c0.8,0,1,0,1.8,0c0.8,0.3,1.6,0.3,2.4,0.5
		c1.3,0.5,1.8,0.5,2.9,1.3c0.5,0.3,0.5,0.3,1,0.5c0,0,0.3,0,0.3,0.3l-1.8,5c-0.5-0.5-0.8-1-1.3-1.8c-0.8-1-1.6-1.6-2.9-2.1
		c-1.3-0.5-2.1-0.8-3.4-0.8h-1.6c-1,0-1.6,0.3-2.4,0.5c-1.8,0.8-3.1,2.1-3.4,4.2c0,0,0,0.3,0,0.5c0,1.8,0.8,2.9,2.4,3.9
		c2.6,1.6,4.4,2.4,7.3,3.7c3.7,1.8,6.5,4.2,7.6,7.8c0,0.5,0.3,1.3,0.3,1.8c0,0.5,0,0.8,0,1.3c-0.3,3.1-1.3,5.2-3.9,7.1
		c-2.6,1.8-4.4,2.1-7.6,2.4c-1.6,0.3-2.6,0-4.2,0c-1.6,0-2.4-0.3-3.7-0.5c-2.1-0.5-3.4-0.8-5.2-1.8l2.1-5.5c1.6,1.8,2.6,3.1,5.2,3.9
		c1,0.5,1.6,0.5,2.9,0.5h1.6c3.4,0,6.5-2.4,6.5-5.8C178.9,83.3,178.3,82.3,177.5,81.2L177.5,81.2z M212.1,81.2c0,0.8,0,1-0.3,1.8
		c-1,4.2-3.7,7.8-8.1,7.8c-4.2,0-7.1-3.4-8.1-7.6c0-0.8-0.3-1.3-0.3-2.1c-0.3-0.3-0.3-0.5-0.3-1v-2.6c0-1.3,0.3-2.1,0.8-3.4
		c0.5-1.8,1-3.1,2.4-4.7c0.8-1,1.6-1.3,2.6-1.8c0.8-0.3,1.3-0.5,2.1-0.5h1.6c0.5,0,0.8,0,1.3,0.3c1.3,0.3,1.8,0.8,2.9,1.6
		c1.3,1,1.8,2.1,2.6,3.7c0.3,1.3,0.5,1.8,0.8,3.1c0,0.5,0.3,0.8,0.3,1.6v3.4C212.3,81,212.3,81,212.1,81.2L212.1,81.2z M189.3,81.2
		c0.3,0.5,0.3,1,0.5,1.6c0.3,1,0.3,1.8,0.8,2.9c1.8,4.2,4.2,6.5,8.4,7.6c1.3,0.5,2.1,0.5,3.4,0.5h2.6c1.3,0,2.1,0,3.4-0.5
		c4.4-1.3,7.1-3.7,8.6-8.1c0.3-1,0.5-1.8,0.8-2.9c0-0.3,0-0.8,0-1c0.3-0.3,0.3-0.5,0.3-1v-2.6c0-1.8-0.3-2.9-1-4.7
		c-1.6-4.7-4.7-7.6-9.4-8.6c-1-0.3-1.6-0.3-2.6-0.3h-2.6c-1,0-1.3,0-2.4,0.3c-0.8,0.3-1.6,0.3-2.4,0.8c-2.4,0.8-3.4,1.6-5,3.4
		c-1.3,1.8-2.1,3.1-2.6,5.5c-0.5,1.6-0.8,2.4-0.8,3.7v2.6C189.3,80.7,189.3,81,189.3,81.2L189.3,81.2z M229.6,81.2c0,1,0,1.8,0,2.9
		c0,0.8,0,1.3,0.3,2.1c0.3,1,0.5,1.8,1.3,2.6c0.5,0.8,1,1,2.1,1.6c0.8,0.3,1.3,0.5,2.1,0.5h1.6c0.8,0,1-0.3,1.8-0.5
		c1-0.3,1.6-0.5,2.1-1.3c0.8-1,1-1.6,1.3-2.6c0.3-1,0.5-1.8,0.5-2.9v-2.4v-12c0-0.3-0.3-0.8-0.3-1c-0.3-1-0.5-1.8-1.3-2.4h7.3
		c-1,1-1.3,2.1-1.3,3.7c-0.3,4.7,0,7.6-0.3,11.8c0,0.8,0,1.6,0,2.4c0,1,0,1.6-0.3,2.4c-0.3,2.1-0.8,3.1-2.1,4.7
		c-1,1.3-1.8,1.8-3.1,2.4c-1.6,0.5-2.4,0.8-4.2,0.8H234c-1.6,0-2.4-0.3-3.7-0.5c-0.8-0.3-1.3-0.5-1.8-1c-0.8-0.3-1.3-0.8-1.8-1.3
		c-1-1.3-1.6-2.1-2.1-3.7c-0.5-1.3-0.5-2.4-0.5-3.9c0-0.5,0-1.3,0-2.1c0-4.2,0-7.1,0-11.8c0-0.8-0.3-1-0.5-1.8
		c-0.3-0.8-0.5-1.3-1-1.8h8.4c-0.8,1-1.3,2.1-1.3,3.7C229.6,74.2,229.6,77,229.6,81.2L229.6,81.2z M266.2,81.2c0,2.4,0,5,0,8.1
		c0,0.8,0.3,1,0.5,1.8c0.3,0.8,0.5,1.3,1,1.8h-8.4c1-1,1.6-2.1,1.6-3.9v-7.8V68.4h-4.7c-0.8,0-1.3,0.3-2.1,0.5
		c-0.8,0.3-1.3,0.5-1.8,1.3l-1-4.4h24.6l-1,4.4c-0.3-0.3-0.5-0.5-0.8-0.8c-1-0.8-1.8-0.8-2.9-0.8c-1.8-0.3-2.9,0-5,0
		C266.2,73.6,266.2,77.3,266.2,81.2L266.2,81.2z M285.6,81.2c0,3.1,0,5,0,8.1c0,1.6,0.5,2.6,1.6,3.7h-8.4c1.3-1,1.6-2.1,1.6-3.9
		v-7.8V69.7c0-0.8-0.3-1-0.3-1.6c-0.3-1-0.5-1.6-1.3-2.4h8.4c-1,1-1.6,2.1-1.6,3.7c0,3.1,0,4.7,0,7.8h13.3v-7.8c0-0.8-0.3-1-0.3-1.6
		c-0.3-1-0.5-1.6-1.3-2.1h8.4c-0.8,0.5-1,1-1.3,2.1c0,0.5-0.3,0.8-0.3,1.6v11.8v8.1c0,0.8,0.3,1,0.3,1.8c0.5,0.8,0.8,1.3,1.3,1.8
		h-8.4c0.5-0.5,0.8-1,1-1.8c0.3-0.5,0.5-1,0.5-1.8v-8.1v-0.5h-13.3C285.6,81,285.6,81,285.6,81.2L285.6,81.2z M346.7,81.2
		c0.5,0.8,0.8,1.6,1.3,2.6c1.8,3.9,2.1,6.8,5.5,9.2h-10.5c0.5-0.8,0.8-1,0.8-2.1c0-0.3,0-0.3-0.3-0.5c0-1.6-0.5-2.4-1.3-3.9
		c-0.3-1-0.5-1.6-1-2.6c-0.3-0.5-0.3-0.8-0.5-1.3H329c-0.3,0.5-0.3,0.8-0.5,1.3l-1,2.9c-0.5,1.6-1.3,2.4-1.3,4.2
		c0,0.8,0.3,1.6,0.8,2.1h-8.4c3.4-2.6,4.2-5.2,5.8-9.2c0.3-1,0.5-1.8,1-2.6c0.8-2.4,1.6-4.2,2.9-6.8c2.9-7.6,4.7-11.5,7.6-19.1
		c1,2.9,1.8,4.2,2.9,6.8c2.1,4.7,3.1,7.6,5.2,12.3C345.2,77,346,79.1,346.7,81.2L346.7,81.2z M362.7,81.2c0,2.9,0,5,0,8.1
		c0.3,1.6,0.5,2.6,1.6,3.7h-8.4c0.8-0.5,1-1,1.3-1.8c0-0.8,0.3-1,0.3-1.8v-8.1V69.4c0-0.5,0-0.8-0.3-1.3c-0.3-1-0.5-1.6-1.3-2.4
		h20.4l-1.3,5c-1-1.3-2.4-1.6-3.9-1.6c-3.1,0-5,0-8.4,0v8.1h7.6c1.3,0,1.8,0,3.1-0.8c0.3-0.3,0.3-0.3,0.8-0.5v5.2V82
		c-0.3-0.3-0.5-0.5-0.8-0.8c-0.8-0.5-1.8-0.8-3.1-0.8c-2.9,0-4.4,0-7.6,0C362.7,80.7,362.7,81,362.7,81.2L362.7,81.2z M387,81.2v7.8
		c0,0.8,0,1.3,0.3,2.1c0.3,0.8,0.5,1.3,1.3,1.8h-8.4c0.5-0.5,0.8-1,1-2.1c0.3-0.5,0.3-0.8,0.3-1.3v-8.4v-12c0-0.5,0-0.8-0.3-1.6
		c-0.3-0.8-0.5-1.3-1-1.8c5,0,7.8,0,13.1,0c3.9,0,7.6,2.4,7.6,6c0,0.8,0.3,1,0,1.6c0,1.3-0.3,2.1-0.8,3.4c-0.5,1-1,1.6-1.8,2.1
		c-1,0.8-1.6,0.8-2.6,1.3c0.3,0.5,0.5,0.8,0.8,1c2.1,2.9,3.4,4.7,5.8,7.8c1.3,1.8,2.1,2.9,3.7,4.4c1,1,1.8,1.6,2.9,2.4
		c0.5,0.5,1,0.5,1.6,1h-2.4h-2.1c-1,0-1.8-0.3-2.9-0.5c-1.3-0.5-1.8-1-2.9-2.1c-1.8-1.3-2.4-2.4-3.7-4.2c-1.6-2.4-2.4-3.7-3.9-6
		c-0.8-1-1-1.6-1.8-2.9c-0.5-0.5-0.8-0.8-1-1.3c1.3-0.3,2.1-0.5,3.1-1c1-0.8,1.6-1,2.1-2.1c0.5-1,0.8-1.6,0.8-2.4v-1.6
		c0-2.4-2.1-4.2-4.7-4.2c-1.6-0.3-2.4,0-3.9,0V81.2L387,81.2z M416.3,81.2v8.1c0,0.8,0.3,1,0.3,1.6c0.5,1,0.8,1.6,1.3,2.1h-8.4
		c0.8-0.5,1-1,1.3-2.1c0-0.5,0.3-1,0.3-1.6v-8.1V69.4c0-0.5-0.3-0.8-0.3-1.3c-0.3-1-0.5-1.6-1.3-2.4h8.4c-0.8,0.5-1,1-1.3,2.1
		c0,0.5-0.3,0.8-0.3,1.6V81.2L416.3,81.2z M428.9,81.2c0,0.5,0.3,1,0.5,1.8c0.8,3.4,2.6,5.5,6,6.8c1.6,0.5,2.4,0.8,3.9,0.8h2.4
		c2.1,0,3.4-0.8,5.5-1.6c-0.5,1-0.5,1.6-0.8,2.4c-0.3,0.5,0,0.8-0.3,1c-0.8,0.3-0.8,0.3-1,0.5c-1,0.3-1.8,0.3-2.6,0.5
		c-0.8,0-1.3,0.3-1.8,0.3H437c-0.8,0-1.3-0.3-2.4-0.3c-1.6-0.5-2.4-0.8-3.9-1.3c-1.8-0.8-2.4-1.6-3.7-2.6c-1.6-1.3-2.1-2.1-2.9-3.9
		c-0.5-1-0.8-1.8-1-2.9c0-0.8,0-1-0.3-1.6c0,0,0-0.3,0-0.5v-2.9c0-1,0.3-1.6,0.5-2.6c0.5-1.3,0.8-2.1,1.6-3.4
		c1.6-2.6,3.4-4.2,6.3-5.5c1.3-0.5,2.1-0.5,3.4-0.8c0.8-0.3,1.3-0.5,2.4-0.5h3.7c1,0,1.6,0.3,2.6,0.3c1.3,0.3,2.1,0.5,3.4,1
		c0.8,0.3,1.3,0.5,2.1,0.8l-1.6,4.7c-0.5-0.5-0.5-1-1-1.6c-1.8-1.3-3.4-2.1-5.8-2.1c-0.5,0-1,0-1.8,0c-4.4,0-7.6,2.6-9.2,6.8
		c-0.3,1-0.5,1.8-0.5,3.1v2.1C428.9,80.7,428.9,81,428.9,81.2L428.9,81.2z M465.2,81.2v0.3h-6.8l0.3-0.3l3.1-7.6L465.2,81.2
		L465.2,81.2z M454.7,81.2c-0.5,1.3-1.3,2.6-1.8,4.2c-1.6,3.1-2.4,5-4.4,7.6h7.1c-0.5-0.3-0.8-1-0.8-1.8c0-1.3,0.5-2.1,1-3.1
		c0.5-1.3,0.8-2.1,1.3-3.4h9.7c0.5,1.3,0.8,2.1,1.3,3.1c0.5,1.3,1,2.1,1,3.4c0,0.8-0.3,1.3-1,1.8h9.2c-1.3-1-1.8-1.8-2.6-3.1
		c-0.8-1.6-1-2.4-1.8-3.9c-0.8-1.8-1.6-3.1-2.1-4.7c-0.5-0.8-0.8-1.6-1.3-2.6c-1.3-2.4-1.8-3.4-2.9-5.8c-0.8-1.8-1.3-2.9-2.1-4.7
		c-0.5-0.8-0.8-1.3-1-2.4c-0.5-0.8-0.5-1-1-1.8c-0.3,1-0.8,1.8-1.3,2.9c-0.8,1.6-1,2.6-1.8,4.4c-1.3,2.9-2.1,4.4-3.1,7.3
		C455.5,79.6,455,80.4,454.7,81.2L454.7,81.2z M484.3,81.2v8.4c0,0.5,0.3,0.8,0.3,1.6c0.5,0.8,0.8,1.3,1.3,1.8h-7.1
		c0.5-0.5,0.8-1,1-2.1c0.3-0.5,0.3-0.8,0.3-1.3c0-3.1,0-5.8,0-8.4c0-3.7,0-7.1,0-11.5c0-1.8-0.3-2.9-1.3-3.9h6.5l12.3,15.4l2.6,3.4
		v-3.4V69.4c0-0.8,0-1-0.3-1.8c-0.3-0.8-0.5-1.3-1-1.8h7.1c-1,1-1.6,2.1-1.6,3.7c0,4.7,0,8.4,0,11.8c0,3.7,0,7.3,0,11.8h-4.2
		l-9.2-11.8l-6.8-8.6V81.2L484.3,81.2z M334.7,68.4l4.4,10.7h-8.6L334.7,68.4L334.7,68.4z"/>
	<path class="st0" d="M153.3,102.1h351.1v4.2H48.1l-1.5-3.9l-0.4-0.6l68-31.4L136,90.4C141.8,95.5,146.2,100.3,153.3,102.1
		L153.3,102.1z"/>
	<polygon class="st5" points="22.3,39.4 22.4,39.7 22.7,40.4 32.5,46.7 54.7,61.1 62.7,66.3 59,73.3 48.3,93.3 45.2,99 45.7,100 
		90.5,58.2 22.3,39.4 	"/>
	<g>
		<defs>
			<polygon id="SVGID_00000067929526832975260310000014108023417902592922_" points="22.3,39.4 22.4,39.7 22.7,40.4 32.5,46.7 
				54.7,61.1 62.7,66.3 59,73.3 48.3,93.3 45.2,99 45.7,100 90.5,58.2 22.3,39.4 			"/>
		</defs>
		<clipPath id="SVGID_00000134210591710985316560000011266410364663575219_">
			<use xlink:href="#SVGID_00000067929526832975260310000014108023417902592922_"  style="overflow:visible;"/>
		</clipPath>
		<g style="clip-path:url(#SVGID_00000134210591710985316560000011266410364663575219_);">
			<defs>
				<rect id="SVGID_00000075144992971586118200000002349010539939290552_" x="22.3" y="39.4" width="68.2" height="60.6"/>
			</defs>
			<clipPath id="SVGID_00000152976445065009859790000010211141765626742462_">
				<use xlink:href="#SVGID_00000075144992971586118200000002349010539939290552_"  style="overflow:visible;"/>
			</clipPath>
			<g style="clip-path:url(#SVGID_00000152976445065009859790000010211141765626742462_);">
				
					<image style="overflow:visible;" width="56" height="49" xlink:href="2DBC944.png"  transform="matrix(1.3656 0 0 -1.3656 18.8686 103.9998)">
				</image>
			</g>
		</g>
		<g style="clip-path:url(#SVGID_00000134210591710985316560000011266410364663575219_);">
			<defs>
				<rect id="SVGID_00000061471229566132634900000014244175468871338428_" x="22.3" y="39.4" width="68.2" height="60.6"/>
			</defs>
			<clipPath id="SVGID_00000058578615095341860050000008487193217924442774_">
				<use xlink:href="#SVGID_00000061471229566132634900000014244175468871338428_"  style="overflow:visible;"/>
			</clipPath>
			<g style="clip-path:url(#SVGID_00000058578615095341860050000008487193217924442774_);">
				
					<image style="overflow:visible;" width="56" height="49" xlink:href="2DBC943.png"  transform="matrix(1.3656 0 0 -1.3656 18.8686 103.9998)">
				</image>
			</g>
		</g>
	</g>
</g>
</svg>
