<?xml version="1.0" encoding="utf-8"?>
<!-- Generator: Adobe Illustrator 27.1.1, SVG Export Plug-In . SVG Version: 6.00 Build 0)  -->
<svg version="1.1" id="Layer_1" xmlns="http://www.w3.org/2000/svg" xmlns:xlink="http://www.w3.org/1999/xlink" x="0px" y="0px"
	 viewBox="0 0 493.9 114.5" style="enable-background:new 0 0 493.9 114.5;" xml:space="preserve">
<style type="text/css">
	.st0{fill:#CF0A2C;}
	.st1{fill:#FFFFFF;}
</style>
<g>
	<path id="Type" class="st0" d="M345.9,88.9h-16.5V25.4h16.5V88.9z M307,25.4l-10.6,42.5l-12.4-42.5H268l-12.4,42.5l-10.6-42.5
		h-16.1l17.5,63.5h17.1l12.6-43.5l12.6,43.5h17l17.6-63.5H307z M227.5,70.9c0-12.1-6.5-16.2-20.6-20.8c-6.7-2.2-12.9-3.8-12.9-9
		c0-4.5,4.6-6.1,8.1-6.1c2.9,0,8.4,0.6,8.9,7.3h15.6c-0.3-12.8-10.7-18.4-24.2-18.4c-8.3,0-15.2,2.4-19.6,6.6
		c-3.1,3.2-4.9,7.4-4.9,11.9c0,11.8,7.9,16.5,16.8,19.3c10,3.1,16.7,4.9,16.7,10.4c0,3.7-2.9,7.4-8.7,7.4c-7.3,0-10-4.3-10.2-8.7
		h-15.8c0,14.6,12.3,20,25.9,20C220.1,90.7,227.5,80.8,227.5,70.9 M404.2,70.9c0-14-10.2-17.7-22.5-21.4c-5.9-1.7-11.3-3.3-11.3-8.5
		c0-4.5,4.6-6.1,8.1-6.1c2.9,0,8.4,0.6,8.8,7.3H403c-0.3-12.8-10.7-18.4-24.2-18.4c-8.3,0-15.2,2.4-19.6,6.6
		c-3.1,3.2-4.9,7.4-4.9,11.9c0,11.8,7.9,16.5,16.8,19.3c10,3.1,16.7,4.9,16.7,10.4c0,3.7-2.9,7.4-8.7,7.4c-7.3,0-10-4.3-10.2-8.7
		h-15.8c0,14.6,12.3,20,25.9,20C396.5,90.7,404.2,80.8,404.2,70.9 M460.9,70.8c0-14-10.2-17.7-22.5-21.4c-6-1.7-11.3-3.3-11.3-8.5
		c0-4.5,4.6-6.1,8-6.1c2.9,0,8.4,0.6,8.9,7.3h15.6c-0.3-12.8-10.8-18.4-24.2-18.4c-8.2,0.1-15.2,2.5-19.5,6.7
		c-3.1,3.2-4.9,7.5-4.9,11.9c0,11.8,7.9,16.5,16.8,19.3c10,3.1,16.7,4.9,16.7,10.4c0,3.7-2.9,7.4-8.7,7.4c-7.3,0-10-4.3-10.2-8.7
		h-15.8c0,14.6,12.3,20,26,20c17.4,0,25.1-9.9,25.1-19.9"/>
	<polygon id="Tailfin" class="st0" points="141.5,106.8 33,106.8 112.5,7.6 166,7.6 	"/>
</g>
<polygon id="Cross" class="st1" points="124.9,48.1 124.9,26.7 106.6,26.7 106.6,48.1 85.3,48.1 85.3,66.4 106.6,66.4 106.6,87.7 
	124.9,87.7 124.9,66.4 124.9,66.4 146.3,66.4 146.3,48.1 "/>
</svg>
