<?xml version="1.0" encoding="utf-8"?>
<!-- Generator: Adobe Illustrator 27.1.1, SVG Export Plug-In . SVG Version: 6.00 Build 0)  -->
<svg version="1.1" id="Layer_1" xmlns="http://www.w3.org/2000/svg" xmlns:xlink="http://www.w3.org/1999/xlink" x="0px" y="0px"
	 viewBox="0 0 512 98.1" style="enable-background:new 0 0 512 98.1;" xml:space="preserve">
<style type="text/css">
	.st0{fill-rule:evenodd;clip-rule:evenodd;}
	.st1{fill-rule:evenodd;clip-rule:evenodd;fill:#CBD451;}
	.st2{fill-rule:evenodd;clip-rule:evenodd;fill:#86C060;}
	.st3{fill-rule:evenodd;clip-rule:evenodd;fill:#DB5152;}
	.st4{fill-rule:evenodd;clip-rule:evenodd;fill:#FFFFFF;}
	.st5{fill-rule:evenodd;clip-rule:evenodd;fill:#BC4350;}
</style>
<g>
	<polygon class="st0" points="176.8,66.2 183.4,66.2 183.4,37.3 194.4,37.3 194.4,31.9 166,31.9 166,37.3 176.8,37.3 176.8,66.2 	
		"/>
	<path class="st0" d="M213.1,56.3l3.5,9.8h7.2l-12.5-34.2h-8.4l-12.1,34.2h6.8l3.3-9.8H213.1L213.1,56.3z M202,51.4l3.1-8.8
		c0.6-1.8,1-3.9,1.6-5.9l0,0c0.6,1.8,1.2,4.1,2,6.1l3.1,8.6H202L202,51.4z"/>
	<path class="st0" d="M227.2,66.2h6.6V53.5c1,0.2,2.3,0.2,3.5,0.2c5.1,0,9-1.2,11.7-3.7c2-1.8,3.1-4.7,3.1-7.8
		c0-3.3-1.4-5.9-3.5-7.6c-2.3-1.8-5.7-3.1-10.7-3.1c-4.7,0-8.2,0.4-10.7,0.8V66.2L227.2,66.2z M233.8,36.9c0.6-0.2,2-0.2,4.1-0.2
		c4.7,0,7.8,1.6,7.8,5.7c0,3.9-3.3,6.3-8.2,6.3c-1.6,0-2.9-0.2-3.7-0.4V36.9L233.8,36.9z"/>
	<path class="st0" d="M263.1,66.2h4.5V52.6c1.2,0.2,2.7,0.2,4.3,0.2c4.7,0,8.6-1.2,11.3-3.7c1.8-1.6,2.9-4.3,2.9-7.4
		c0-3.1-1.2-5.5-3.3-7.2c-2-1.8-5.5-3.1-10.2-3.1c-4.1,0-7.2,0.4-9.4,0.8V66.2L263.1,66.2z M267.6,35.6c1-0.2,2.7-0.4,4.9-0.4
		c4.9,0,8.8,1.8,8.8,6.8c0,4.7-3.5,7.4-9.2,7.4c-1.8,0-3.3-0.2-4.5-0.6V35.6L267.6,35.6z"/>
	<path class="st0" d="M306.5,66.8c9.8,0,17.8-6.8,17.8-18c0-10-7-17.4-17.4-17.4c-10.2,0-17.8,7.4-17.8,18
		C289.1,59.4,296.2,66.8,306.5,66.8L306.5,66.8L306.5,66.8z M306.7,63.1c-8,0-12.7-6.3-12.7-13.7c0-7.8,4.3-14.3,12.7-14.3
		s12.7,7,12.7,13.9C319.4,56.9,314.5,63.1,306.7,63.1L306.7,63.1L306.7,63.1z"/>
	<path class="st0" d="M327.8,66.2h4.7V51.4h5.1c4.1,0.2,6.1,2,7.2,6.8c1,4.3,1.8,7,2.5,8h4.7c-0.6-1.4-1.6-4.7-2.9-9.6
		c-0.8-3.3-2.5-5.7-5.1-6.8l0,0c3.7-1.2,6.8-4.3,6.8-8.8c0-2.7-1-4.9-2.7-6.3c-2.3-2-5.5-3.1-10.7-3.1c-3.5,0-7.2,0.4-9.6,0.8V66.2
		L327.8,66.2z M332.5,35.6c0.8-0.2,2.5-0.4,5.1-0.4c4.7,0,8.6,1.6,8.6,6.3c0,3.9-3.3,6.3-8.4,6.3h-5.3V35.6L332.5,35.6z"/>
	<polygon class="st0" points="364.9,66.2 369.6,66.2 369.6,35.8 381.5,35.8 381.5,31.9 353,31.9 353,35.8 364.9,35.8 364.9,66.2 	
		"/>
	<path class="st0" d="M384.1,31.9v19.3c0,11.5,5.9,15.6,13.5,15.6c8.2,0,14.3-4.5,14.3-15.6V31.9h-4.5v19.5c0,8-3.9,11.7-9.6,11.7
		c-5.3,0-9-3.7-9-11.7V31.9H384.1L384.1,31.9z"/>
	<path class="st0" d="M447.8,48.1h-12.3v3.7h7.8v9.8c-1.2,0.6-3.7,1.2-7,1.2c-9.4,0-15-5.7-15-13.9c0-7.8,5.7-13.5,15.4-13.5
		c4.1,0,6.6,0.6,8.8,1.6l1.2-3.7c-1.6-0.8-5.3-1.8-9.8-1.8c-13.3,0-20.5,8.4-20.5,17.6c0,5.1,1.8,9.6,4.9,12.5
		c3.7,3.5,8.6,4.9,14.5,4.9c5.3,0,9.8-1.4,11.9-2V48.1L447.8,48.1z"/>
	<path class="st0" d="M473.2,55.3l4.1,10.9h5.1l-13.1-34.2h-5.5l-13.1,34.2h4.9l3.9-10.9H473.2L473.2,55.3z M460.5,51.6l4.1-10.2
		c0.6-2,1.2-3.9,1.6-5.7h0.2c0.4,1.8,1,3.7,1.8,5.7l3.9,10.2H460.5L460.5,51.6z"/>
	<polygon class="st0" points="485.1,66.2 506,66.2 506,62.3 489.8,62.3 489.8,31.9 485.1,31.9 485.1,66.2 	"/>
	<polygon class="st1" points="41.6,51.8 75.8,51.8 75.8,74.8 41.6,74.8 41.6,51.8 	"/>
	<polygon class="st1" points="23.2,89.1 45.9,9 80.4,9 103.1,89.1 80.4,89.1 63.1,31.9 45.9,89.1 23.2,89.1 	"/>
	<polygon class="st1" points="23.2,89.1 23.2,31.9 6,31.9 6,9 63.1,9 63.1,31.9 45.9,31.9 45.9,89.1 23.2,89.1 	"/>
	<polygon class="st2" points="23.2,89.1 45.9,89.1 45.9,31.9 63.1,31.9 63.1,9 45.9,9 23.2,89.1 	"/>
	<path class="st3" d="M80.4,9h39.9c15.8,0,28.5,12.9,28.5,28.7s-12.9,28.5-28.5,28.5h-17.2v22.9H80.4V9L80.4,9z"/>
	<path class="st4" d="M103.1,31.9h17.2c3.1,0,5.5,2.5,5.5,5.7c0,3.1-2.5,5.7-5.5,5.7h-17.2V31.9L103.1,31.9z"/>
	<polygon class="st5" points="80.4,89.1 103.1,89.1 80.4,9 80.4,89.1 	"/>
</g>
</svg>
