<?xml version="1.0" encoding="utf-8"?>
<!-- Generator: Adobe Illustrator 27.1.1, SVG Export Plug-In . SVG Version: 6.00 Build 0)  -->
<svg version="1.1" id="Layer_1" xmlns="http://www.w3.org/2000/svg" xmlns:xlink="http://www.w3.org/1999/xlink" x="0px" y="0px"
	 viewBox="0 0 162 32" style="enable-background:new 0 0 162 32;" xml:space="preserve">
<style type="text/css">
	.st0{fill-rule:evenodd;clip-rule:evenodd;}
	.st1{fill-rule:evenodd;clip-rule:evenodd;fill:#FFFFFF;}
	.st2{fill-rule:evenodd;clip-rule:evenodd;fill:#1414D2;}
</style>
<path class="st0" d="M135.7,5c-2.2,0-4.4,0.4-6.5,1.1h0V7c0.1,0,0.3-0.1,0.7-0.2c0.2,0,0.3-0.1,0.5-0.1c0.1,0,0.1,0,0.2,0
	c2-0.3,3.8,0.1,4.9,1.3c2.3,2.7,0.4,8.1-4.3,12.2c-0.6,0.5-1.2,1-1.8,1.4c0,0,0,0,0,0v1.3c0.2-0.1,0.4-0.3,0.6-0.4
	c0.3,0.4,1.9,3.1,2,3.2c0.1-0.1,0.5-0.3,0.9-0.6c0.5-0.3,1.1-0.8,1.7-1.3c0,0,0,0,0.1-0.1l-2.6-3c0.3-0.3,1.1-1.1,1.8-2
	c0.2,0.1,2.3,1.8,3.2,2.6c0.7-0.7,1.3-1.5,1.9-2.3c-1.2-0.8-3.6-2.2-3.6-2.2c0.4-0.7,0.8-1.3,1-2c0,0,2.9,1.1,4,1.7
	c0.3-0.6,0.6-1.3,0.8-1.9c0-0.1,0.1-0.2,0.1-0.3c-1.5-0.6-4.1-1.2-4.3-1.3c0.2-0.6,0.3-1.1,0.3-1.6c2.1,0.2,4,0.7,4.4,0.8
	c0.1-0.6,0.1-1.2,0-1.7c-2.3-0.4-4.2-0.4-4.4-0.4c-0.1-0.4-0.1-0.8-0.3-1.2c0,0,2.1-0.2,4.3,0.1c-0.1-0.2-0.3-0.5-0.4-0.7
	c-0.1-0.2-0.4-0.5-0.4-0.5s-1.8-0.1-4,0.2c-0.2-0.3-0.4-0.5-0.7-0.7c0,0,1.7-0.4,3.6-0.4c-0.5-0.4-1.1-0.6-1.1-0.6
	c-1.5,0-3.1,0.5-3.2,0.5c-0.4-0.3-0.8-0.4-0.8-0.4c0.1,0,1.3-0.4,2.1-0.5c-1.2-0.2-2.8,0.2-2.9,0.3c-0.2,0-0.6-0.1-0.8-0.1
	c0,0,0.9-0.2,2-0.4c1-0.1,4.5-0.6,6.7,2.4c2.1,2.8,1.3,7.2-1.5,11.5c-0.8,1.1-1.6,2.3-2.7,3.3c-0.9,0.9-1.8,1.7-2.6,2.4
	c-1.3,1-2.7,1.9-4.2,2.7c-0.3,0.2-0.6,0.3-0.9,0.5v1.4c2.4-1.2,3.9-2.3,3.9-2.3l2.1,2.9c0,0,1.6-1,3.2-2.3c1.6-1.3-2.5-2.8-2.5-2.8
	c0.9-0.8,1.8-1.7,2.6-2.6c0,0,2.6,2.3,2.8,2.5c0.8-0.9,1.5-1.9,2.2-2.9c-1.3-1.1-3.1-2.2-3.1-2.3c0,0,1-1.7,1.5-2.7
	c0,0,1.7,0.9,3.3,2c0.4-0.9,0.7-1.8,0.9-2.7c-1-0.6-3.4-1.7-3.4-1.7c0.2-0.8,0.3-1.5,0.3-2.3c0,0,1.7,0.5,3.4,1.4
	c0-0.7,0-1.4-0.1-2.1c-1.4-0.7-3.4-1.2-3.4-1.2c-0.1-0.6-0.3-1.1-0.5-1.7c-0.3-0.8,1.7,0.3,3.3,1c-0.4-0.9-0.9-1.3-0.9-1.3
	c-1-0.5-3.2-1-3.2-1c-0.2-0.3-0.5-0.6-0.8-0.9c0.7,0.1,1.8,0.3,1.8,0.3c-1.2-0.6-2.6-0.9-2.6-0.9c0,0-0.3-0.2-0.6-0.3
	c0,0,3.4,0.7,5.2,2.1c0.2,0.1,0.3,0.3,0.5,0.4c0.2,0.2,0.3,0.4,0.5,0.6c3.7,5,0.5,14.7-8.4,21.5h3.3c-0.2-0.2-0.6-0.7-0.7-0.8
	c1-1,2-2,2.9-3.1l2.2,2.2c0.9-1,1.7-2,2.4-3.2c0,0-1.2-1.1-2.4-2.2c1-1.6,1.6-3.2,1.6-3.2c0.1,0.1,1.3,1,2.5,2.1c0.6-1.3,1-3,1-3
	c-1.3-1.2-2.6-2-2.6-2c0.2-0.9,0.3-1.8,0.3-2.7c0,0,1.4,0.8,2.6,1.9c0-0.8-0.1-1.6-0.2-2.3c-1.2-1-2.5-1.7-2.5-1.7s-0.1-0.9-0.6-1.9
	c0.1,0,0.7,0.4,1.8,1.2c-0.9-1.1-2.4-2.3-2.4-2.3c-0.1-0.2-0.3-0.5-0.5-0.7c1.2,0.8,2.4,1.8,3.4,3c0.4,0.5,0.7,1.1,1,1.7
	c0.1,0.2,0.1,0.4,0.2,0.6c0.8,2.8,0.3,5.9-0.6,8.5c-1.1,2.9-2.8,5.7-4.9,8h3.9c0.4-0.5,0.7-1.1,1.1-1.6c-0.3-0.4-1.5-1.8-1.5-1.8
	c0.7-1.1,1.2-2.2,1.7-3.4c0,0,0.8,0.9,1.4,1.8c0.6-1.5,0.9-3,0.9-3c-0.4-0.7-1.4-1.8-1.4-1.8c0.2-0.9,0.3-1.9,0.3-2.9
	c0.5,0.6,1.1,1.5,1.1,1.5c-0.1-1.8-1-3.4-1.2-3.7c0,0,0-0.1,0-0.1c-0.1-0.6-0.3-1.3-0.4-1.6c1,1.5,1.7,3.2,1.7,3.2
	c0.4,1.1,0.7,2.5,0.7,4c0,0.8-0.2,4.9-3.3,9.6h1c0.6-1.1,1.2-2.5,1.7-3.6c0,0,0.2,0.6,0.4,1.2c0.3-1.2,0.6-2.4,0.7-3.7
	c0-0.2-0.1-0.4-0.2-0.6c0,0,0.2-1.1,0.3-2.3c0.1,0.8,0.2,1.7,0.2,2.6c0,1.5-0.2,3-0.5,4.4c-0.2,0.7-0.4,1.4-0.6,2h0.8
	c0.7-2,1.1-4.2,1.1-6.4C154.9,13.8,146.3,5.1,135.7,5L135.7,5z M129.2,17.8v2.6c0.5-0.3,0.9-0.6,1.4-1L129.2,17.8z M129.8,7.1
	c-0.2,0.1-0.4,0.3-0.6,0.5v0.6c0.5-0.4,1.2-0.9,1.8-1.2C130.6,7,130.3,7,129.8,7.1 M131.6,17.3c-0.7-0.5-2.3-1.6-2.3-1.6v-1.4
	c1.2-1.7,1.4-3.7,0.3-4.6c-0.1-0.1-0.2-0.2-0.3-0.2V8.7h0c0,0,1.5-1.2,2.7-1.7c0.3,0,0.6,0.1,0.8,0.1c-1.8,0.8-3.1,1.7-3.2,1.8
	c0.2,0.1,0.3,0.2,0.4,0.3c0,0,1.7-1.1,3.6-1.7c0.3,0.1,0.5,0.3,0.7,0.4c-2.1,0.6-4.1,1.6-4.1,1.6c0.1,0.1,0.2,0.3,0.3,0.4
	c0,0,0,0,0,0c2.1-0.9,4.4-1.4,4.4-1.4c0.2,0.2,0.3,0.5,0.4,0.8c0,0-2,0.2-4.6,1.1c0.1,0.4,0.1,0.6,0.1,0.6c0,0,2.4-0.6,4.7-0.6
	c0,0.4,0,0.8,0,1.2c-1.3-0.1-4.5,0.1-4.6,0.1c0,0,0,0.5-0.1,0.9c0,0,2.3,0.1,4.4,0.5c-0.2,0.5-0.4,1-0.6,1.5
	c-1.4-0.4-3.5-0.9-4.1-1.1c-0.1,0.4-0.3,0.7-0.6,1.1c-0.3,0.5,2.6,1.1,3.6,1.7c-0.4,0.7-1.3,1.6-1.3,1.6
	C132,17.6,131.8,17.4,131.6,17.3L131.6,17.3z M160.8,28.3c-0.7,0-1.2,0.5-1.2,1.2s0.5,1.2,1.2,1.2c0.7,0,1.2-0.5,1.2-1.2
	S161.5,28.3,160.8,28.3 M160.8,28.5c0.6,0,1,0.5,1,1s-0.5,1-1,1c-0.6,0-1-0.5-1-1S160.2,28.5,160.8,28.5 M160.4,28.9h0.6
	c0.2,0,0.4,0.1,0.4,0.3c0,0.2-0.1,0.3-0.3,0.3l0.4,0.5h-0.2l-0.4-0.5h-0.2v0.5h-0.2L160.4,28.9L160.4,28.9z M160.5,29.1v0.3h0.4
	c0.1,0,0.2-0.1,0.2-0.2c0-0.1-0.1-0.2-0.2-0.2H160.5z M58.7,12.6h5.7v10.8h4.4V12.6h5.7v-4H58.7V12.6z M85.3,17.6h9.1v-3.1h-9.1
	v-2.2h9.8V8.6H81v14.8h14.2v-3.6h-9.9L85.3,17.6L85.3,17.6z M106.4,19.4h3.9c2.8,0,4.1-1,4.1-3.4s-1.3-3.4-4.1-3.4h-3.9V19.4z
	 M102.1,8.6h8.4c5.9,0,8.5,2.6,8.5,7.4s-2.7,7.4-8.5,7.4h-8.4V8.6z M47.9,23.4h4.4V8.6h-4.4V23.4L47.9,23.4z M36.2,17.2l-8.1-8.6
	h-4.3v14.8h4.1V14l8.9,9.4h3.6V8.6h-4.1L36.2,17.2L36.2,17.2z M0,16.1V8.6h4.4v7.3c0,2.8,1.3,4,3.9,4s3.9-1.2,3.9-4V8.6h4.4v7.6
	c0,5.3-2.7,7.6-8.3,7.6S0,21.4,0,16.1"/>
<rect x="129.2" y="1.3" class="st1" width="29.4" height="29.5"/>
<path class="st2" d="M135.7,5c10.6,0,19.2,8.7,19.2,19.3c0,2.2-0.4,4.3-1.1,6.4h4.7V1.3h-29.4v4.9h0C131.3,5.4,133.4,5,135.7,5
	 M129.1,14.2c1.2-1.7,1.4-3.7,0.3-4.6c-0.1-0.1-0.2-0.2-0.3-0.2V14.2L129.1,14.2z M135.3,8c-1.1-1.2-2.8-1.6-4.9-1.3
	c-0.1,0-0.1,0-0.2,0c-0.2,0-0.3,0.1-0.5,0.1c-0.3,0.1-0.5,0.1-0.7,0.2v0.6c0.2-0.2,0.4-0.3,0.6-0.5C130.2,7,130.6,7,131,7
	c-0.6,0.3-1.3,0.8-1.8,1.2v0.5h0c0,0,1.5-1.2,2.7-1.7c0.3,0,0.6,0.1,0.8,0.1c-1.8,0.8-3.1,1.7-3.2,1.8c0.2,0.1,0.3,0.2,0.4,0.3
	c0,0,1.7-1.1,3.6-1.7c0.3,0.1,0.5,0.3,0.7,0.4c-2.1,0.6-4.1,1.6-4.1,1.6c0.1,0.1,0.2,0.3,0.3,0.4c0,0,0,0,0,0
	c2.1-0.9,4.4-1.4,4.4-1.4c0.2,0.2,0.3,0.5,0.4,0.8c0,0-2,0.2-4.6,1.1c0.1,0.4,0.1,0.6,0.1,0.6c0,0,2.4-0.6,4.7-0.6
	c0,0.4,0,0.8,0,1.2c-1.3-0.1-4.5,0.1-4.6,0.1c0,0,0,0.5-0.1,0.9c0,0,2.3,0.1,4.4,0.5c-0.2,0.5-0.4,1-0.6,1.5
	c-1.4-0.4-3.5-0.9-4.1-1.1c-0.1,0.4-0.3,0.7-0.6,1.1c-0.3,0.5,2.6,1.1,3.6,1.7c-0.4,0.7-1.3,1.6-1.3,1.6c-0.2-0.2-0.5-0.4-0.7-0.5
	c-0.7-0.5-2.3-1.6-2.3-1.6v2.2l1.4,1.6c-0.4,0.4-0.9,0.7-1.4,1v1.3c0,0,0,0,0,0c0.6-0.4,1.2-0.9,1.8-1.4
	C135.7,16.1,137.6,10.7,135.3,8 M141,8.2c-2.2-3-5.7-2.6-6.7-2.4c-1.1,0.2-2,0.4-2,0.4c0.3,0,0.6,0.1,0.8,0.1c0.2,0,1.8-0.4,2.9-0.3
	c-0.9,0.1-2,0.4-2.1,0.5c0,0,0.4,0.1,0.8,0.4c0.1,0,1.7-0.5,3.2-0.5c0,0,0.6,0.2,1.1,0.6c-1.9,0-3.6,0.4-3.6,0.4
	c0.2,0.2,0.5,0.5,0.7,0.7c2.1-0.3,4-0.2,4-0.2s0.2,0.3,0.4,0.5c0.1,0.2,0.3,0.5,0.4,0.7c-2.2-0.3-4.3-0.1-4.3-0.1
	c0.1,0.4,0.2,0.8,0.3,1.2c0.2,0,2.1,0,4.4,0.4c0.1,0.5,0.1,1.1,0,1.7c-0.4-0.1-2.3-0.6-4.4-0.8c0,0.5-0.1,1.1-0.3,1.6
	c0.2,0.1,2.8,0.7,4.3,1.3c0,0.1-0.1,0.2-0.1,0.3c-0.2,0.6-0.5,1.3-0.8,1.9c-1.2-0.6-4-1.7-4-1.7c-0.3,0.6-0.6,1.3-1,2
	c0,0,2.5,1.4,3.6,2.2c-0.6,0.8-1.2,1.6-1.9,2.3c-0.9-0.8-3-2.4-3.2-2.6c-0.7,0.8-1.6,1.7-1.8,2l2.6,3c0,0,0,0-0.1,0.1
	c-0.6,0.5-1.2,0.9-1.7,1.3c-0.4,0.3-0.8,0.5-0.9,0.6c0,0-1.7-2.8-2-3.2c-0.2,0.1-0.4,0.3-0.6,0.4v5.6c0.3-0.1,0.6-0.3,0.9-0.5
	c1.5-0.7,2.9-1.6,4.2-2.7c0.8-0.7,1.7-1.5,2.6-2.4c1-1,1.9-2.1,2.7-3.3C142.4,15.4,143.1,11,141,8.2L141,8.2z M145.6,9.2
	c-0.1-0.2-0.3-0.4-0.5-0.6c-0.2-0.2-0.3-0.3-0.5-0.4c-1.8-1.4-5.2-2.1-5.2-2.1c0.3,0.2,0.6,0.3,0.6,0.3c0,0,1.4,0.3,2.6,0.9
	c0,0-1.1-0.2-1.8-0.3c0.3,0.3,0.6,0.6,0.8,0.9c0,0,2.2,0.4,3.2,1c0,0,0.5,0.5,0.9,1.3c-1.5-0.6-3.3-1-3.3-1c0.2,0.5,0.4,1.1,0.5,1.7
	c0,0,1.9,0.5,3.4,1.2c0.1,0.7,0.2,1.4,0.1,2.1c-1.7-0.9-3.4-1.4-3.4-1.4c0,0.7-0.1,1.5-0.3,2.3c0,0,2.3,1,3.4,1.7
	c-0.2,0.9-0.6,1.8-0.9,2.7c-1.6-1-3.3-2-3.3-2c-0.4,1-1.5,2.7-1.5,2.7s1.8,1.2,3.1,2.3c-0.7,1-1.4,2-2.2,2.9
	c-0.3-0.3-2.8-2.5-2.8-2.5c-0.8,0.9-1.7,1.8-2.6,2.6l2.5,2.8c-1,0.8-2.1,1.6-3.2,2.3l-2.1-2.9c0,0-1.4,1.1-3.9,2.3v0.8h8
	C146.1,24,149.2,14.3,145.6,9.2 M145,30.7c2.1-2.3,3.9-5.1,4.9-8c0.9-2.6,1.4-5.7,0.6-8.5c-0.1-0.2-0.1-0.4-0.2-0.6
	c-0.3-0.7-0.6-1.3-1-1.7c-1-1.1-2.1-2.1-3.4-3c0.2,0.2,0.3,0.5,0.5,0.7c0,0,1.5,1.1,2.4,2.3c-1.1-0.8-1.8-1.1-1.8-1.2
	c0.4,1,0.6,1.9,0.6,1.9s1.3,0.7,2.5,1.7c0.2,0.8,0.2,1.6,0.2,2.3c-1.2-1.1-2.6-1.9-2.6-1.9c0,0.9-0.1,1.8-0.3,2.7c0,0,1.3,0.8,2.6,2
	c0,0-0.4,1.7-1,3c-0.8-0.7-1.7-1.5-2.5-2.1c0,0-0.6,1.6-1.6,3.2c1.2,1.1,2.4,2.2,2.4,2.2c-0.7,1.1-1.5,2.2-2.4,3.2l-2.2-2.2
	c-0.9,1.1-1.9,2.2-2.9,3.1c0,0.1,0.5,0.6,0.7,0.8L145,30.7L145,30.7z M148.9,30.7h1.1c3.1-4.7,3.3-8.8,3.3-9.6c0-1.5-0.2-2.9-0.7-4
	c0,0-0.7-1.7-1.7-3.2c0.1,0.3,0.3,1,0.4,1.6c0,0,0,0.1,0,0.1c0.2,0.3,1.1,1.9,1.2,3.7c0,0-0.6-0.9-1.1-1.5c0,1-0.1,1.9-0.3,2.9
	c0,0,0.9,1.1,1.4,1.8c0,0-0.3,1.5-0.9,3c-0.6-0.9-1.4-1.8-1.4-1.8c-0.5,1.2-1.1,2.3-1.7,3.4c0,0,1.2,1.4,1.5,1.8
	C149.7,29.6,149.3,30.2,148.9,30.7L148.9,30.7z M151,30.7c0.6-1.1,1.2-2.5,1.7-3.6c0,0,0.2,0.6,0.4,1.2c0.3-1.2,0.6-2.4,0.7-3.7
	c0-0.2-0.1-0.4-0.2-0.6c0,0,0.2-1.1,0.3-2.3c0.1,0.8,0.2,1.7,0.2,2.6c0,1.5-0.2,3-0.5,4.4c-0.2,0.7-0.4,1.4-0.6,2L151,30.7L151,30.7
	z"/>
</svg>
