<?xml version="1.0" encoding="utf-8"?>
<!-- Generator: Adobe Illustrator 27.1.1, SVG Export Plug-In . SVG Version: 6.00 Build 0)  -->
<svg version="1.1" id="a" xmlns="http://www.w3.org/2000/svg" xmlns:xlink="http://www.w3.org/1999/xlink" x="0px" y="0px"
	 viewBox="0 0 748.2 273.6" style="enable-background:new 0 0 748.2 273.6;" xml:space="preserve">
<style type="text/css">
	.st0{fill:#181C23;}
	.st1{fill:#A6F750;}
</style>
<g>
	<path class="st0" d="M285,43.3l-28.9,41.4h-87.4v102.2h72.4v-32h-26.9l-26.5-37.6h92.6v69.6l-29.1,41.4H159l-29.6-41.4V85.5
		L159,43.3L285,43.3L285,43.3z"/>
	<path class="st0" d="M479.7,0l-87.3,228.2h-36.6L285.2,43.3h39.9L374,170l59.9-155.2L479.7,0z"/>
	<path class="st0" d="M618.7,43.3l-28.9,41.4h-87.4v32.6h97.3l-26.5,37.6h-70.8V242l-39.3,31.7V43.3H618.7L618.7,43.3z"/>
</g>
<path class="st1" d="M96.4,228.2H59.1l-27.4-28.6v-31.5L0,135.1l31.6-33V70.7l27.4-28.8h37.2L68.9,70.6v37.2l-26.2,27.4l26.2,27.4
	v37L96.4,228.2L96.4,228.2z"/>
<path class="st1" d="M679.3,199.6v-37l26.2-27.4l-26.2-27.4V70.6L652,41.8h37.2l27.4,28.8v31.5l31.6,33l-31.6,33v31.5l-27.4,28.6
	h-37.3L679.3,199.6L679.3,199.6z"/>
</svg>
